<?xml version="1.0" encoding="UTF-8" standalone="no"?>
<!DOCTYPE svg PUBLIC "-//W3C//DTD SVG 1.0//EN" "http://www.w3.org/TR/2001/REC-SVG-20010904/DTD/svg10.dtd">
<svg xmlns="http://www.w3.org/2000/svg" xmlns:xlink="http://www.w3.org/1999/xlink" fill-rule="evenodd" height="4.541666666666667in" preserveAspectRatio="none" stroke-linecap="round" viewBox="0 0 568 328" width="7.885416666666667in">
<style type="text/css">
.brush0 { fill: rgb(255,255,255); }
.pen0 { stroke: rgb(0,0,0); stroke-width: 1; stroke-linejoin: round; }
.font0 { font-size: 11px; font-family: "MS Sans Serif"; }
.pen1 { stroke: rgb(0,0,0); stroke-width: 7; stroke-linejoin: round; }
.brush1 { fill: none; }
.font1 { font-weight: bold; font-size: 16px; font-family: System, sans-serif; }
</style>
<g>
<line class="pen1" fill="none" x1="12" x2="140" y1="196" y2="196"/>
<line class="pen1" fill="none" x1="76" x2="76" y1="132" y2="260"/>
<line class="pen1" fill="none" x1="60" x2="92" y1="68" y2="68"/>
<line class="pen1" fill="none" x1="92" x2="92" y1="68" y2="100"/>
<line class="pen1" fill="none" x1="92" x2="60" y1="100" y2="100"/>
<line class="pen1" fill="none" x1="60" x2="60" y1="100" y2="68"/>
<circle class="pen1" cx="204.0" cy="196.0" fill="none" r="32.0"/>
<line class="pen1" fill="none" x1="236" x2="172" y1="132" y2="260"/>
<line class="pen1" fill="none" x1="172" x2="236" y1="260" y2="260"/>
<line class="pen1" fill="none" x1="268" x2="332" y1="196" y2="132"/>
<line class="pen1" fill="none" x1="332" x2="396" y1="132" y2="196"/>
<path class="pen1" d="M 428.0,196.0 A 64.0,64.0 0 0 0 492.0,132.0" fill="none"/>
<path class="pen1" d="M 492.0,132.0 A 64.0,64.0 0 0 0 556.0,196.0" fill="none"/>
<line class="pen1" fill="none" x1="492" x2="492" y1="132" y2="260"/>
<line class="pen1" fill="none" x1="540" x2="508" y1="196" y2="228"/>
<line class="pen1" fill="none" x1="508" x2="540" y1="228" y2="260"/>
</g>
</svg>
