<?xml version="1.0" encoding="UTF-8" standalone="no"?>
<!DOCTYPE svg PUBLIC "-//W3C//DTD SVG 1.0//EN" "http://www.w3.org/TR/2001/REC-SVG-20010904/DTD/svg10.dtd">
<svg xmlns="http://www.w3.org/2000/svg" xmlns:xlink="http://www.w3.org/1999/xlink" fill-rule="evenodd" height="4.541666666666667in" preserveAspectRatio="none" stroke-linecap="round" viewBox="0 0 696 328" width="9.65625in">
<style type="text/css">
.brush0 { fill: rgb(255,255,255); }
.pen0 { stroke: rgb(0,0,0); stroke-width: 1; stroke-linejoin: round; }
.font0 { font-size: 11px; font-family: "MS Sans Serif"; }
.pen1 { stroke: rgb(0,0,0); stroke-width: 7; stroke-linejoin: round; }
.brush1 { fill: none; }
.font1 { font-weight: bold; font-size: 16px; font-family: System, sans-serif; }
</style>
<g>
<line class="pen1" fill="none" x1="620" x2="620" y1="132" y2="260"/>
<path class="pen1" d="M 684.0,196.0 A 64.0,64.0 0 1 0 556.0,196.0" fill="none"/>
<line class="pen1" fill="none" x1="396" x2="396" y1="132" y2="260"/>
<line class="pen1" fill="none" x1="524" x2="524" y1="132" y2="260"/>
<path class="pen1" d="M 300.0,196.0 A 64.0,64.0 0 1 0 172.0,196.0" fill="none"/>
<line class="pen1" fill="none" x1="300" x2="364" y1="196" y2="196"/>
<line class="pen1" fill="none" x1="332" x2="364" y1="164" y2="196"/>
<line class="pen1" fill="none" x1="364" x2="332" y1="196" y2="228"/>
<path class="pen1" d="M 140.0,196.0 A 64.0,64.0 0 1 0 12.0,196.0" fill="none"/>
<line class="pen1" fill="none" x1="12" x2="76" y1="196" y2="196"/>
<line class="pen1" fill="none" x1="12" x2="12" y1="132" y2="196"/>
<line class="pen1" fill="none" x1="76" x2="76" y1="132" y2="260"/>
<line class="pen1" fill="none" x1="588" x2="588" y1="196" y2="260"/>
<line class="pen1" fill="none" x1="572" x2="604" y1="260" y2="260"/>
<line class="pen1" fill="none" x1="572" x2="588" y1="212" y2="196"/>
<ellipse class="pen1 brush1" cx="428" cy="260" rx="1" ry="1"/>
<ellipse class="pen1 brush1" cx="460" cy="260" rx="1" ry="1"/>
<ellipse class="pen1 brush1" cx="492" cy="260" rx="1" ry="1"/>
</g>
</svg>
