<?xml version="1.0" encoding="UTF-8" standalone="no"?>
<!DOCTYPE svg PUBLIC "-//W3C//DTD SVG 1.0//EN" "http://www.w3.org/TR/2001/REC-SVG-20010904/DTD/svg10.dtd">
<svg xmlns="http://www.w3.org/2000/svg" xmlns:xlink="http://www.w3.org/1999/xlink" fill-rule="evenodd" height="4.541666666666667in" preserveAspectRatio="none" stroke-linecap="round" viewBox="0 0 216 328" width="3.0in">
<style type="text/css">
.brush0 { fill: rgb(255,255,255); }
.pen0 { stroke: rgb(0,0,0); stroke-width: 1; stroke-linejoin: round; }
.font0 { font-size: 11px; font-family: "MS Sans Serif"; }
.pen1 { stroke: rgb(0,0,0); stroke-width: 7; stroke-linejoin: round; }
.brush1 { fill: none; }
.font1 { font-weight: bold; font-size: 16px; font-family: System, sans-serif; }
</style>
<g>
<path class="pen1" d="M 12.980709657364216,163.87644602741867 A 127.0,128.0 0 0 0 76.36545528603006,259.3503017137243" fill="none"/>
<path class="pen1" d="M 76.0,164.0 A 32.0,32.0 0 1 0 12.0,164.0" fill="none"/>
<path class="pen1" d="M 140.0,164.0 A 32.0,32.0 0 1 0 76.0,164.0" fill="none"/>
<path class="pen1" d="M 75.81590424281757,259.6701004031291 A 127.5,128.0 0 0 0 139.99998480152138,163.99999807766278" fill="none"/>
<path class="pen1" d="M 187.67335854398792,195.67335854398792 A 45.5,45.5 0 0 0 187.67335854398792,131.32664145601208" fill="none"/>
<path class="pen1" d="M 187.32664145601208,195.32664145601208 A 45.5,45.5 0 0 0 187.8332155216319,260.1720792237131" fill="none"/>
<ellipse class="pen1 brush1" cx="44" cy="68" rx="1" ry="1"/>
<line class="pen1" fill="none" x1="60" x2="76" y1="68" y2="100"/>
<line class="pen1" fill="none" x1="76" x2="92" y1="100" y2="68"/>
</g>
</svg>
