<?xml version="1.0" encoding="UTF-8" standalone="no"?>
<!DOCTYPE svg PUBLIC "-//W3C//DTD SVG 1.0//EN" "http://www.w3.org/TR/2001/REC-SVG-20010904/DTD/svg10.dtd">
<svg xmlns="http://www.w3.org/2000/svg" xmlns:xlink="http://www.w3.org/1999/xlink" fill-rule="evenodd" height="4.541666666666667in" preserveAspectRatio="none" stroke-linecap="round" viewBox="0 0 568 328" width="7.885416666666667in">
<style type="text/css">
.brush0 { fill: rgb(255,255,255); }
.pen0 { stroke: rgb(0,0,0); stroke-width: 1; stroke-linejoin: round; }
.font0 { font-size: 11px; font-family: "MS Sans Serif"; }
.pen1 { stroke: rgb(0,0,0); stroke-width: 7; stroke-linejoin: round; }
.brush1 { fill: none; }
.font1 { font-weight: bold; font-size: 16px; font-family: System, sans-serif; }
</style>
<g>
<line class="pen1" fill="none" x1="108" x2="108" y1="196" y2="260"/>
<line class="pen1" fill="none" x1="108" x2="236" y1="196" y2="196"/>
<line class="pen1" fill="none" x1="236" x2="236" y1="196" y2="260"/>
<line class="pen1" fill="none" x1="236" x2="268" y1="260" y2="260"/>
<line class="pen1" fill="none" x1="428" x2="556" y1="196" y2="196"/>
<circle class="pen1" cx="460.0" cy="228.0" fill="none" r="32.0"/>
<line class="pen1" fill="none" x1="482" x2="437" y1="205" y2="250"/>
<line class="pen1" fill="none" x1="437" x2="482" y1="205" y2="250"/>
<circle class="pen1" cx="524.0" cy="228.0" fill="none" r="32.0"/>
<line class="pen1" fill="none" x1="546" x2="501" y1="205" y2="250"/>
<line class="pen1" fill="none" x1="501" x2="546" y1="205" y2="250"/>
<line class="pen1" fill="none" x1="12" x2="76" y1="196" y2="260"/>
<line class="pen1" fill="none" x1="76" x2="12" y1="196" y2="260"/>
<line class="pen1" fill="none" x1="236" x2="300" y1="260" y2="260"/>
<line class="pen1" fill="none" x1="332" x2="396" y1="196" y2="260"/>
<line class="pen1" fill="none" x1="396" x2="332" y1="196" y2="260"/>
</g>
</svg>
