<?xml version="1.0" encoding="UTF-8" standalone="no"?>
<!DOCTYPE svg PUBLIC "-//W3C//DTD SVG 1.0//EN" "http://www.w3.org/TR/2001/REC-SVG-20010904/DTD/svg10.dtd">
<svg xmlns="http://www.w3.org/2000/svg" xmlns:xlink="http://www.w3.org/1999/xlink" fill-rule="evenodd" height="4.541666666666667in" preserveAspectRatio="none" stroke-linecap="round" viewBox="0 0 440 328" width="6.104166666666667in">
<style type="text/css">
.brush0 { fill: rgb(255,255,255); }
.pen0 { stroke: rgb(0,0,0); stroke-width: 1; stroke-linejoin: round; }
.font0 { font-size: 11px; font-family: "MS Sans Serif"; }
.pen1 { stroke: rgb(0,0,0); stroke-width: 7; stroke-linejoin: round; }
.brush1 { fill: none; }
.font1 { font-weight: bold; font-size: 16px; font-family: System, sans-serif; }
</style>
<g>
<line class="pen1" fill="none" x1="300" x2="428" y1="196" y2="196"/>
<circle class="pen1" cx="332.0" cy="228.0" fill="none" r="32.0"/>
<line class="pen1" fill="none" x1="354" x2="309" y1="205" y2="250"/>
<line class="pen1" fill="none" x1="309" x2="354" y1="205" y2="250"/>
<circle class="pen1" cx="396.0" cy="228.0" fill="none" r="32.0"/>
<line class="pen1" fill="none" x1="418" x2="373" y1="205" y2="250"/>
<line class="pen1" fill="none" x1="373" x2="418" y1="205" y2="250"/>
<line class="pen1" fill="none" x1="396" x2="428" y1="164" y2="196"/>
<line class="pen1" fill="none" x1="412" x2="380" y1="148" y2="180"/>
<circle class="pen1" cx="268.0" cy="228.0" fill="none" r="32.0"/>
<line class="pen1" fill="none" x1="290" x2="245" y1="205" y2="250"/>
<line class="pen1" fill="none" x1="245" x2="290" y1="205" y2="250"/>
<line class="pen1" fill="none" x1="236" x2="300" y1="196" y2="196"/>
<line class="pen1" fill="none" x1="12" x2="12" y1="196" y2="260"/>
<line class="pen1" fill="none" x1="12" x2="140" y1="196" y2="196"/>
<line class="pen1" fill="none" x1="140" x2="140" y1="196" y2="260"/>
<line class="pen1" fill="none" x1="140" x2="204" y1="260" y2="260"/>
</g>
</svg>
