<?xml version="1.0" encoding="UTF-8" standalone="no"?>
<!DOCTYPE svg PUBLIC "-//W3C//DTD SVG 1.0//EN" "http://www.w3.org/TR/2001/REC-SVG-20010904/DTD/svg10.dtd">
<svg xmlns="http://www.w3.org/2000/svg" xmlns:xlink="http://www.w3.org/1999/xlink" fill-rule="evenodd" height="4.541666666666667in" preserveAspectRatio="none" stroke-linecap="round" viewBox="0 0 280 328" width="3.8854166666666665in">
<style type="text/css">
.brush0 { fill: rgb(255,255,255); }
.pen0 { stroke: rgb(0,0,0); stroke-width: 1; stroke-linejoin: round; }
.font0 { font-size: 11px; font-family: "MS Sans Serif"; }
.pen1 { stroke: rgb(0,0,0); stroke-width: 7; stroke-linejoin: round; }
.brush1 { fill: none; }
.font1 { font-weight: bold; font-size: 16px; font-family: System, sans-serif; }
</style>
<g>
<path class="pen1" d="M 205.2825294592593,130.8555890978917 A 45.5,45.0 0 0 0 138.19599593641186,130.33917086209348" fill="none"/>
<path class="pen1" d="M 203.8332155216319,132.1720792237131 A 45.5,45.5 0 0 0 267.6733585439879,131.67335854398792" fill="none"/>
<path class="pen1" d="M 205.2825294592593,194.8555890978917 A 45.5,45.0 0 0 0 138.19599593641186,194.33917086209348" fill="none"/>
<path class="pen1" d="M 203.8332155216319,196.1720792237131 A 45.5,45.5 0 0 0 267.6733585439879,195.67335854398792" fill="none"/>
<path class="pen1" d="M 205.2825294592593,258.8555890978917 A 45.5,45.0 0 0 0 138.19599593641186,258.33917086209345" fill="none"/>
<path class="pen1" d="M 203.8332155216319,260.1720792237131 A 45.5,45.5 0 0 0 267.6733585439879,259.6733585439879" fill="none"/>
<circle class="pen1" cx="44.0" cy="196.0" fill="none" r="32.0"/>
<path class="pen1" d="M 108.0,164.0 A 32.0,32.0 0 1 0 44.0,164.0" fill="none"/>
<path class="pen1" d="M 43.81590424281757,259.6701004031291 A 127.5,128.0 0 0 0 107.99998480152138,163.99999807766278" fill="none"/>
</g>
</svg>
