<?xml version="1.0" encoding="UTF-8" standalone="no"?>
<!DOCTYPE svg PUBLIC "-//W3C//DTD SVG 1.0//EN" "http://www.w3.org/TR/2001/REC-SVG-20010904/DTD/svg10.dtd">
<svg xmlns="http://www.w3.org/2000/svg" xmlns:xlink="http://www.w3.org/1999/xlink" fill-rule="evenodd" height="4.541666666666667in" preserveAspectRatio="none" stroke-linecap="round" viewBox="0 0 504 328" width="6.989583333333333in">
<style type="text/css">
.brush0 { fill: rgb(255,255,255); }
.pen0 { stroke: rgb(0,0,0); stroke-width: 1; stroke-linejoin: round; }
.font0 { font-size: 11px; font-family: "MS Sans Serif"; }
.pen1 { stroke: rgb(0,0,0); stroke-width: 7; stroke-linejoin: round; }
.brush1 { fill: none; }
.font1 { font-weight: bold; font-size: 16px; font-family: System, sans-serif; }
</style>
<g>
<circle class="pen1" cx="44.0" cy="196.0" fill="none" r="32.0"/>
<line class="pen1" fill="none" x1="12" x2="76" y1="260" y2="260"/>
<line class="pen1" fill="none" x1="44" x2="44" y1="164" y2="228"/>
<path class="pen1" d="M 251.67335854398792,195.67335854398792 A 45.5,45.5 0 0 0 251.67335854398792,131.32664145601208" fill="none"/>
<path class="pen1" d="M 219.32664145601208,131.32664145601208 A 45.5,45.5 0 0 0 219.8332155216319,196.1720792237131" fill="none"/>
<line class="pen1" fill="none" x1="140" x2="140" y1="132" y2="260"/>
<line class="pen1" fill="none" x1="108" x2="172" y1="164" y2="164"/>
<path class="pen1" d="M 428.0,132.0 A 64.0,64.0 0 1 0 300.0,132.0" fill="none"/>
<path class="pen1" d="M 428.0,196.0 A 64.0,64.0 0 1 0 300.0,196.0" fill="none"/>
<line class="pen1" fill="none" x1="300" x2="428" y1="196" y2="196"/>
<line class="pen1" fill="none" x1="428" x2="396" y1="196" y2="164"/>
<line class="pen1" fill="none" x1="428" x2="396" y1="196" y2="228"/>
<line class="pen1" fill="none" x1="364" x2="364" y1="132" y2="260"/>
<line class="pen1" fill="none" x1="460" x2="460" y1="132" y2="260"/>
<ellipse class="pen1 brush1" cx="492" cy="196" rx="1" ry="1"/>
</g>
</svg>
