<?xml version="1.0" encoding="UTF-8" standalone="no"?>
<!DOCTYPE svg PUBLIC "-//W3C//DTD SVG 1.0//EN" "http://www.w3.org/TR/2001/REC-SVG-20010904/DTD/svg10.dtd">
<svg xmlns="http://www.w3.org/2000/svg" xmlns:xlink="http://www.w3.org/1999/xlink" fill-rule="evenodd" height="4.541666666666667in" preserveAspectRatio="none" stroke-linecap="round" viewBox="0 0 264 328" width="3.6666666666666665in">
<style type="text/css">
.brush0 { fill: rgb(255,255,255); }
.pen0 { stroke: rgb(0,0,0); stroke-width: 1; stroke-linejoin: round; }
.font0 { font-size: 11px; font-family: "MS Sans Serif"; }
.pen1 { stroke: rgb(0,0,0); stroke-width: 7; stroke-linejoin: round; }
.brush1 { fill: none; }
.font1 { font-weight: bold; font-size: 16px; font-family: System, sans-serif; }
</style>
<g>
<circle class="pen1" cx="92.0" cy="228.0" fill="none" r="32.0"/>
<line class="pen1" fill="none" x1="114" x2="69" y1="205" y2="250"/>
<line class="pen1" fill="none" x1="69" x2="114" y1="205" y2="250"/>
<circle class="pen1" cx="156.0" cy="228.0" fill="none" r="32.0"/>
<line class="pen1" fill="none" x1="178" x2="133" y1="205" y2="250"/>
<line class="pen1" fill="none" x1="133" x2="178" y1="205" y2="250"/>
<circle class="pen1" cx="220.0" cy="228.0" fill="none" r="32.0"/>
<line class="pen1" fill="none" x1="242" x2="197" y1="205" y2="250"/>
<line class="pen1" fill="none" x1="197" x2="242" y1="205" y2="250"/>
<circle class="pen1" cx="92.0" cy="164.0" fill="none" r="32.0"/>
<line class="pen1" fill="none" x1="114" x2="69" y1="141" y2="186"/>
<line class="pen1" fill="none" x1="69" x2="114" y1="141" y2="186"/>
<line class="pen1" fill="none" x1="140" x2="12" y1="68" y2="196"/>
<line class="pen1" fill="none" x1="12" x2="108" y1="196" y2="196"/>
<line class="pen1" fill="none" x1="92" x2="220" y1="196" y2="196"/>
<line class="pen1" fill="none" x1="188" x2="252" y1="196" y2="196"/>
<line class="pen1" fill="none" x1="220" x2="252" y1="164" y2="196"/>
<line class="pen1" fill="none" x1="236" x2="204" y1="148" y2="180"/>
</g>
</svg>
