<?xml version="1.0" encoding="UTF-8" standalone="no"?>
<!DOCTYPE svg PUBLIC "-//W3C//DTD SVG 1.0//EN" "http://www.w3.org/TR/2001/REC-SVG-20010904/DTD/svg10.dtd">
<svg xmlns="http://www.w3.org/2000/svg" xmlns:xlink="http://www.w3.org/1999/xlink" fill-rule="evenodd" height="4.541666666666667in" preserveAspectRatio="none" stroke-linecap="round" viewBox="0 0 312 328" width="4.333333333333333in">
<style type="text_image/css">
.brush0 { fill: rgb(255,255,255); }
.pen0 { stroke: rgb(0,0,0); stroke-width: 1; stroke-linejoin: round; }
.font0 { font-size: 11px; font-family: "MS Sans Serif"; }
.pen1 { stroke: rgb(0,0,0); stroke-width: 7; stroke-linejoin: round; }
.brush1 { fill: none; }
.brush2 { fill: rgb(0,0,0); }
.font1 { font-weight: bold; font-size: 16px; font-family: System, sans-serif; }
</style>
<g>
<line class="pen1" fill="none" x1="12" x2="76" y1="196" y2="196"/>
<line class="pen1" fill="none" x1="44" x2="44" y1="164" y2="228"/>
<line class="pen1" fill="none" x1="108" x2="108" y1="164" y2="212"/>
<ellipse class="pen1 brush2" cx="108" cy="227" rx="1" ry="1"/>
<line class="pen1" fill="none" x1="140" x2="140" y1="164" y2="212"/>
<ellipse class="pen1 brush2" cx="140" cy="227" rx="1" ry="1"/>
<path class="pen1" d="M 172.00001519847862,163.9999980776628 A 127.5,128.0 0 0 0 236.18409575718243,259.67010040312914" fill="none"/>
<path class="pen1" d="M 236.0,164.0 A 32.0,32.0 0 1 0 172.0,164.0" fill="none"/>
<path class="pen1" d="M 300.0,164.0 A 32.0,32.0 0 1 0 236.0,164.0" fill="none"/>
<path class="pen1" d="M 235.75343867296755,259.5616687519423 A 128.0,128.0 0 0 0 299.99612444498604,163.9995117411006" fill="none"/>
<line class="pen1" fill="none" x1="236" x2="300" y1="132" y2="260"/>
<line class="pen1" fill="none" x1="300" x2="172" y1="260" y2="260"/>
<line class="pen1" fill="none" x1="172" x2="236" y1="260" y2="132"/>
</g>
</svg>
