<?xml version="1.0" encoding="UTF-8" standalone="no"?>
<!DOCTYPE svg PUBLIC "-//W3C//DTD SVG 1.0//EN" "http://www.w3.org/TR/2001/REC-SVG-20010904/DTD/svg10.dtd">
<svg xmlns="http://www.w3.org/2000/svg" xmlns:xlink="http://www.w3.org/1999/xlink" fill-rule="evenodd" height="4.541666666666667in" preserveAspectRatio="none" stroke-linecap="round" viewBox="0 0 504 328" width="6.989583333333333in">
<style type="text/css">
.brush0 { fill: rgb(255,255,255); }
.pen0 { stroke: rgb(0,0,0); stroke-width: 1; stroke-linejoin: round; }
.font0 { font-size: 11px; font-family: "MS Sans Serif"; }
.pen1 { stroke: rgb(0,0,0); stroke-width: 7; stroke-linejoin: round; }
.brush1 { fill: none; }
.brush2 { fill: rgb(0,0,0); }
.font1 { font-weight: bold; font-size: 16px; font-family: System, sans-serif; }
</style>
<g>
<circle class="pen1" cx="44.0" cy="196.0" fill="none" r="32.0"/>
<line class="pen1" fill="none" x1="28" x2="44" y1="100" y2="68"/>
<line class="pen1" fill="none" x1="44" x2="60" y1="68" y2="100"/>
<path class="pen1" d="M 140.00001519847862,163.9999980776628 A 127.5,128.0 0 0 0 204.18409575718243,259.67010040312914" fill="none"/>
<path class="pen1" d="M 204.0,164.0 A 32.0,32.0 0 1 0 140.0,164.0" fill="none"/>
<path class="pen1" d="M 268.0,164.0 A 32.0,32.0 0 1 0 204.0,164.0" fill="none"/>
<path class="pen1" d="M 203.75343867296755,259.5616687519423 A 128.0,128.0 0 0 0 267.99612444498604,163.9995117411006" fill="none"/>
<line class="pen1" fill="none" x1="332" x2="332" y1="132" y2="260"/>
<line class="pen1" fill="none" x1="332" x2="300" y1="260" y2="228"/>
<line class="pen1" fill="none" x1="332" x2="364" y1="260" y2="228"/>
<line class="pen1" fill="none" x1="396" x2="428" y1="164" y2="196"/>
<line class="pen1" fill="none" x1="428" x2="396" y1="196" y2="228"/>
<path class="pen1" d="M 460.0,260.0 A 80.0,80.0 0 0 0 460.0,132.0" fill="none"/>
<path class="pen1" d="M 105.3128047094055,268.8752031396037 A 16.0,16.0 0 0 0 108.0,260.0" fill="none"/>
<ellipse class="pen1 brush2" cx="104" cy="259" rx="3" ry="3"/>
</g>
</svg>
