<?xml version="1.0" encoding="UTF-8" standalone="no"?>
<!DOCTYPE svg PUBLIC "-//W3C//DTD SVG 1.0//EN" "http://www.w3.org/TR/2001/REC-SVG-20010904/DTD/svg10.dtd">
<svg xmlns="http://www.w3.org/2000/svg" xmlns:xlink="http://www.w3.org/1999/xlink" fill-rule="evenodd" height="4.541666666666667in" preserveAspectRatio="none" stroke-linecap="round" viewBox="0 0 408 328" width="5.65625in">
<style type="text_image/css">
.brush0 { fill: rgb(255,255,255); }
.pen0 { stroke: rgb(0,0,0); stroke-width: 1; stroke-linejoin: round; }
.font0 { font-size: 11px; font-family: "MS Sans Serif"; }
.pen1 { stroke: rgb(0,0,0); stroke-width: 7; stroke-linejoin: round; }
.brush1 { fill: none; }
.font1 { font-weight: bold; font-size: 16px; font-family: System, sans-serif; }
</style>
<g>
<path class="pen1" d="M 76.0,260.0 A 64.0,64.0 0 0 0 140.0,196.0" fill="none"/>
<path class="pen1" d="M 12.0,196.0 A 64.0,64.0 0 0 0 76.0,260.0" fill="none"/>
<path class="pen1" d="M 76.0,196.0 A 32.0,32.0 0 1 0 12.0,196.0" fill="none"/>
<path class="pen1" d="M 140.0,196.0 A 32.0,32.0 0 1 0 76.0,196.0" fill="none"/>
<path class="pen1" d="M 140.0,132.0 A 64.0,64.0 0 0 0 76.0,196.0" fill="none"/>
<line class="pen1" fill="none" x1="172" x2="236" y1="196" y2="196"/>
<line class="pen1" fill="none" x1="172" x2="236" y1="260" y2="260"/>
<line class="pen1" fill="none" x1="204" x2="204" y1="196" y2="260"/>
<path class="pen1" d="M 333.2825294592593,194.8555890978917 A 45.5,45.0 0 0 0 266.19599593641186,194.33917086209348" fill="none"/>
<path class="pen1" d="M 331.8332155216319,196.1720792237131 A 45.5,45.5 0 0 0 395.6733585439879,195.67335854398792" fill="none"/>
<line class="pen1" fill="none" x1="396" x2="268" y1="132" y2="260"/>
<path class="pen1" d="M 75.40990257669732,243.4099025766973 A 22.5,22.5 0 0 0 75.40990257669732,211.5900974233027" fill="none"/>
<path class="pen1" d="M 75.59009742330268,211.59009742330267 A 22.5,22.5 0 0 0 76.09480211255891,243.89908162211472" fill="none"/>
</g>
</svg>
