<?xml version="1.0" encoding="UTF-8" standalone="no"?>
<!DOCTYPE svg PUBLIC "-//W3C//DTD SVG 1.0//EN" "http://www.w3.org/TR/2001/REC-SVG-20010904/DTD/svg10.dtd">
<svg xmlns="http://www.w3.org/2000/svg" xmlns:xlink="http://www.w3.org/1999/xlink" fill-rule="evenodd" height="4.541666666666667in" preserveAspectRatio="none" stroke-linecap="round" viewBox="0 0 136 328" width="1.8854166666666667in">
<style type="text_image/css">
.brush0 { fill: rgb(255,255,255); }
.pen0 { stroke: rgb(0,0,0); stroke-width: 1; stroke-linejoin: round; }
.font0 { font-size: 11px; font-family: "MS Sans Serif"; }
.pen1 { stroke: rgb(0,0,0); stroke-width: 7; stroke-linejoin: round; }
.brush1 { fill: none; }
.font1 { font-weight: bold; font-size: 16px; font-family: System, sans-serif; }
</style>
<g>
<path class="pen1" d="M 91.67335854398792,259.6733585439879 A 45.5,45.5 0 0 0 91.67335854398792,195.32664145601208" fill="none"/>
<path class="pen1" d="M 27.32664145601209,195.32664145601208 A 45.5,45.5 0 0 0 27.833215521631903,260.1720792237131" fill="none"/>
<path class="pen1" d="M 59.40990257669732,243.4099025766973 A 22.5,22.5 0 0 0 59.40990257669732,211.5900974233027" fill="none"/>
<path class="pen1" d="M 59.59009742330268,211.59009742330267 A 22.5,22.5 0 0 0 60.09480211255891,243.89908162211472" fill="none"/>
<line class="pen1" fill="none" x1="28" x2="92" y1="260" y2="260"/>
<path class="pen1" d="M 124.0,68.0 A 64.0,64.0 0 0 0 60.0,132.0" fill="none"/>
<path class="pen1" d="M 92.0,196.0 A 80.0,80.0 0 0 0 60.00000000000001,132.0" fill="none"/>
<path class="pen1" d="M 60.000000000000014,132.0 A 80.0,80.0 0 0 0 28.0,196.0" fill="none"/>
</g>
</svg>
