<?xml version="1.0" encoding="UTF-8" standalone="no"?>
<!DOCTYPE svg PUBLIC "-//W3C//DTD SVG 1.0//EN" "http://www.w3.org/TR/2001/REC-SVG-20010904/DTD/svg10.dtd">
<svg xmlns="http://www.w3.org/2000/svg" xmlns:xlink="http://www.w3.org/1999/xlink" fill-rule="evenodd" height="4.541666666666667in" preserveAspectRatio="none" stroke-linecap="round" viewBox="0 0 376 328" width="5.21875in">
<style type="text_image/css">
.brush0 { fill: rgb(255,255,255); }
.pen0 { stroke: rgb(0,0,0); stroke-width: 1; stroke-linejoin: round; }
.font0 { font-size: 11px; font-family: "MS Sans Serif"; }
.pen1 { stroke: rgb(0,0,0); stroke-width: 7; stroke-linejoin: round; }
.brush1 { fill: none; }
.font1 { font-weight: bold; font-size: 16px; font-family: System, sans-serif; }
</style>
<g>
<path class="pen1" d="M 76.0,196.0 A 64.0,64.0 0 0 0 12.0,260.0" fill="none"/>
<path class="pen1" d="M 12.000000000000004,260.0 A 64.0,64.0 0 0 0 76.0,196.0" fill="none"/>
<line class="pen1" fill="none" x1="76" x2="204" y1="196" y2="196"/>
<line class="pen1" fill="none" x1="236" x2="364" y1="196" y2="196"/>
<line class="pen1" fill="none" x1="76" x2="108" y1="260" y2="196"/>
<line class="pen1" fill="none" x1="108" x2="140" y1="196" y2="260"/>
<line class="pen1" fill="none" x1="140" x2="172" y1="260" y2="196"/>
<line class="pen1" fill="none" x1="172" x2="204" y1="196" y2="260"/>
<line class="pen1" fill="none" x1="236" x2="268" y1="196" y2="260"/>
<line class="pen1" fill="none" x1="268" x2="300" y1="260" y2="196"/>
<line class="pen1" fill="none" x1="300" x2="332" y1="196" y2="260"/>
<line class="pen1" fill="none" x1="332" x2="364" y1="260" y2="196"/>
<path class="pen1" d="M 141.2825294592593,290.8555890978917 A 45.5,45.0 0 0 0 74.19599593641188,290.33917086209345" fill="none"/>
<path class="pen1" d="M 139.8332155216319,292.1720792237131 A 45.5,45.5 0 0 0 203.67335854398792,291.6733585439879" fill="none"/>
</g>
</svg>
