<?xml version="1.0" encoding="UTF-8" standalone="no"?>
<!DOCTYPE svg PUBLIC "-//W3C//DTD SVG 1.0//EN" "http://www.w3.org/TR/2001/REC-SVG-20010904/DTD/svg10.dtd">
<svg xmlns="http://www.w3.org/2000/svg" xmlns:xlink="http://www.w3.org/1999/xlink" fill-rule="evenodd" height="4.541666666666667in" preserveAspectRatio="none" stroke-linecap="round" viewBox="0 0 568 328" width="7.885416666666667in">
<style type="text/css">
.brush0 { fill: rgb(255,255,255); }
.pen0 { stroke: rgb(0,0,0); stroke-width: 1; stroke-linejoin: round; }
.font0 { font-size: 11px; font-family: "MS Sans Serif"; }
.pen1 { stroke: rgb(0,0,0); stroke-width: 7; stroke-linejoin: round; }
.brush1 { fill: none; }
.font1 { font-weight: bold; font-size: 16px; font-family: System, sans-serif; }
</style>
<g>
<line class="pen1" fill="none" x1="76" x2="76" y1="132" y2="260"/>
<path class="pen1" d="M 12.000000000000004,196.0 A 64.0,64.0 0 0 0 76.0,132.0" fill="none"/>
<path class="pen1" d="M 76.0,132.0 A 64.0,64.0 0 0 0 140.0,196.0" fill="none"/>
<line class="pen1" fill="none" x1="332" x2="332" y1="132" y2="260"/>
<line class="pen1" fill="none" x1="316" x2="348" y1="244" y2="276"/>
<line class="pen1" fill="none" x1="348" x2="316" y1="244" y2="276"/>
<path class="pen1" d="M 333.2825294592593,194.8555890978917 A 45.5,45.0 0 0 0 266.19599593641186,194.33917086209348" fill="none"/>
<path class="pen1" d="M 331.8332155216319,196.1720792237131 A 45.5,45.5 0 0 0 395.6733585439879,195.67335854398792" fill="none"/>
<ellipse class="pen1 brush1" cx="204" cy="196" rx="1" ry="1"/>
<circle class="pen1" cx="204.0" cy="196.0" fill="none" r="32.0"/>
<line class="pen1" fill="none" x1="172" x2="236" y1="260" y2="260"/>
<line class="pen1" fill="none" x1="332" x2="332" y1="260" y2="292"/>
<circle class="pen1" cx="492.0" cy="196.0" fill="none" r="64.0"/>
<line class="pen1" fill="none" x1="460" x2="492" y1="180" y2="148"/>
<line class="pen1" fill="none" x1="492" x2="524" y1="148" y2="180"/>
</g>
</svg>
