<?xml version="1.0" encoding="UTF-8" standalone="no"?>
<!DOCTYPE svg PUBLIC "-//W3C//DTD SVG 1.0//EN" "http://www.w3.org/TR/2001/REC-SVG-20010904/DTD/svg10.dtd">
<svg xmlns="http://www.w3.org/2000/svg" xmlns:xlink="http://www.w3.org/1999/xlink" fill-rule="evenodd" height="4.541666666666667in" preserveAspectRatio="none" stroke-linecap="round" viewBox="0 0 696 328" width="9.65625in">
<style type="text_image/css">
.brush0 { fill: rgb(255,255,255); }
.pen0 { stroke: rgb(0,0,0); stroke-width: 1; stroke-linejoin: round; }
.font0 { font-size: 11px; font-family: "MS Sans Serif"; }
.pen1 { stroke: rgb(0,0,0); stroke-width: 7; stroke-linejoin: round; }
.brush1 { fill: none; }
.font1 { font-weight: bold; font-size: 16px; font-family: System, sans-serif; }
</style>
<g>
<line class="pen1" fill="none" x1="460" x2="524" y1="132" y2="260"/>
<line class="pen1" fill="none" x1="524" x2="396" y1="260" y2="260"/>
<line class="pen1" fill="none" x1="396" x2="460" y1="260" y2="132"/>
<line class="pen1" fill="none" x1="396" x2="460" y1="196" y2="68"/>
<line class="pen1" fill="none" x1="460" x2="524" y1="68" y2="196"/>
<line class="pen1" fill="none" x1="396" x2="428" y1="196" y2="196"/>
<line class="pen1" fill="none" x1="492" x2="524" y1="196" y2="196"/>
<circle class="pen1" cx="620.0" cy="196.0" fill="none" r="64.0"/>
<line class="pen1" fill="none" x1="588" x2="620" y1="180" y2="148"/>
<line class="pen1" fill="none" x1="620" x2="652" y1="148" y2="180"/>
<path class="pen1" d="M 236.0,196.0 A 64.0,64.0 0 0 0 364.0,196.0" fill="none"/>
<line class="pen1" fill="none" x1="300" x2="268" y1="132" y2="164"/>
<line class="pen1" fill="none" x1="300" x2="332" y1="132" y2="164"/>
<line class="pen1" fill="none" x1="300" x2="300" y1="132" y2="260"/>
<line class="pen1" fill="none" x1="44" x2="76" y1="164" y2="196"/>
<line class="pen1" fill="none" x1="76" x2="44" y1="196" y2="228"/>
<line class="pen1" fill="none" x1="76" x2="108" y1="132" y2="164"/>
<line class="pen1" fill="none" x1="108" x2="140" y1="164" y2="132"/>
<line class="pen1" fill="none" x1="172" x2="140" y1="164" y2="196"/>
<line class="pen1" fill="none" x1="140" x2="172" y1="196" y2="228"/>
<line class="pen1" fill="none" x1="76" x2="108" y1="260" y2="228"/>
<line class="pen1" fill="none" x1="108" x2="140" y1="228" y2="260"/>
<line class="pen1" fill="none" x1="140" x2="204" y1="196" y2="196"/>
<line class="pen1" fill="none" x1="12" x2="76" y1="196" y2="196"/>
<line class="pen1" fill="none" x1="108" x2="108" y1="100" y2="164"/>
<line class="pen1" fill="none" x1="108" x2="108" y1="228" y2="292"/>
</g>
</svg>
