<?xml version="1.0" encoding="UTF-8" standalone="no"?>
<!DOCTYPE svg PUBLIC "-//W3C//DTD SVG 1.0//EN" "http://www.w3.org/TR/2001/REC-SVG-20010904/DTD/svg10.dtd">
<svg xmlns="http://www.w3.org/2000/svg" xmlns:xlink="http://www.w3.org/1999/xlink" fill-rule="evenodd" height="4.541666666666667in" preserveAspectRatio="none" stroke-linecap="round" viewBox="0 0 488 328" width="6.770833333333333in">
<style type="text/css">
.brush0 { fill: rgb(255,255,255); }
.pen0 { stroke: rgb(0,0,0); stroke-width: 1; stroke-linejoin: round; }
.font0 { font-size: 11px; font-family: "MS Sans Serif"; }
.pen1 { stroke: rgb(0,0,0); stroke-width: 7; stroke-linejoin: round; }
.brush1 { fill: none; }
.font1 { font-weight: bold; font-size: 16px; font-family: System, sans-serif; }
</style>
<g>
<circle class="pen1" cx="76.0" cy="228.0" fill="none" r="32.0"/>
<line class="pen1" fill="none" x1="108" x2="108" y1="132" y2="228"/>
<line class="pen1" fill="none" x1="12" x2="76" y1="164" y2="164"/>
<line class="pen1" fill="none" x1="76" x2="76" y1="164" y2="228"/>
<line class="pen1" fill="none" x1="76" x2="12" y1="228" y2="228"/>
<line class="pen1" fill="none" x1="12" x2="12" y1="228" y2="164"/>
<line class="pen1" fill="none" x1="140" x2="204" y1="164" y2="164"/>
<line class="pen1" fill="none" x1="204" x2="204" y1="164" y2="228"/>
<line class="pen1" fill="none" x1="204" x2="140" y1="228" y2="228"/>
<line class="pen1" fill="none" x1="140" x2="140" y1="228" y2="164"/>
<line class="pen1" fill="none" x1="204" x2="268" y1="164" y2="164"/>
<line class="pen1" fill="none" x1="268" x2="268" y1="164" y2="228"/>
<line class="pen1" fill="none" x1="268" x2="204" y1="228" y2="228"/>
<line class="pen1" fill="none" x1="204" x2="204" y1="228" y2="164"/>
<circle class="pen1" cx="396.0" cy="228.0" fill="none" r="32.0"/>
<path class="pen1" d="M 443.6733585439879,259.6733585439879 A 45.5,45.5 0 0 0 443.6733585439879,195.32664145601208" fill="none"/>
<path class="pen1" d="M 332.0,212.0 A 16.0,16.0 0 1 0 300.0,212.0" fill="none"/>
<path class="pen1" d="M 300.0,244.0 A 16.0,16.0 0 0 0 332.0,244.0" fill="none"/>
<line class="pen1" fill="none" x1="300" x2="300" y1="212" y2="244"/>
<line class="pen1" fill="none" x1="332" x2="332" y1="212" y2="244"/>
</g>
</svg>
