<?xml version="1.0" encoding="UTF-8" standalone="no"?>
<!DOCTYPE svg PUBLIC "-//W3C//DTD SVG 1.0//EN" "http://www.w3.org/TR/2001/REC-SVG-20010904/DTD/svg10.dtd">
<svg xmlns="http://www.w3.org/2000/svg" xmlns:xlink="http://www.w3.org/1999/xlink" fill-rule="evenodd" height="4.541666666666667in" preserveAspectRatio="none" stroke-linecap="round" viewBox="0 0 424 328" width="5.885416666666667in">
<style type="text_image/css">
.brush0 { fill: rgb(255,255,255); }
.pen0 { stroke: rgb(0,0,0); stroke-width: 1; stroke-linejoin: round; }
.font0 { font-size: 11px; font-family: "MS Sans Serif"; }
.pen1 { stroke: rgb(0,0,0); stroke-width: 7; stroke-linejoin: round; }
.brush1 { fill: none; }
.font1 { font-weight: bold; font-size: 16px; font-family: System, sans-serif; }
</style>
<g>
<path class="pen1" d="M 12.0,196.0 A 64.0,64.0 0 0 0 140.0,196.0" fill="none"/>
<line class="pen1" fill="none" x1="76" x2="76" y1="132" y2="196"/>
<line class="pen1" fill="none" x1="12" x2="140" y1="196" y2="196"/>
<line class="pen1" fill="none" x1="412" x2="348" y1="132" y2="196"/>
<line class="pen1" fill="none" x1="316" x2="252" y1="196" y2="260"/>
<line class="pen1" fill="none" x1="348" x2="284" y1="228" y2="292"/>
<line class="pen1" fill="none" x1="252" x2="284" y1="260" y2="292"/>
<line class="pen1" fill="none" x1="316" x2="348" y1="196" y2="228"/>
<path class="pen1" d="M 301.2825294592593,258.8555890978917 A 45.5,45.0 0 0 0 234.19599593641186,258.33917086209345" fill="none"/>
<path class="pen1" d="M 299.8332155216319,260.1720792237131 A 45.5,45.5 0 0 0 363.6733585439879,259.6733585439879" fill="none"/>
<line class="pen1" fill="none" x1="188" x2="188" y1="196" y2="260"/>
<line class="pen1" fill="none" x1="172" x2="204" y1="260" y2="260"/>
<line class="pen1" fill="none" x1="172" x2="188" y1="212" y2="196"/>
<line class="pen1" fill="none" x1="396" x2="332" y1="148" y2="212"/>
</g>
</svg>
