<?xml version="1.0" encoding="UTF-8" standalone="no"?>
<!DOCTYPE svg PUBLIC "-//W3C//DTD SVG 1.0//EN" "http://www.w3.org/TR/2001/REC-SVG-20010904/DTD/svg10.dtd">
<svg xmlns="http://www.w3.org/2000/svg" xmlns:xlink="http://www.w3.org/1999/xlink" fill-rule="evenodd" height="4.541666666666667in" preserveAspectRatio="none" stroke-linecap="round" viewBox="0 0 328 328" width="4.552083333333333in">
<style type="text_image/css">
.brush0 { fill: rgb(255,255,255); }
.pen0 { stroke: rgb(0,0,0); stroke-width: 1; stroke-linejoin: round; }
.font0 { font-size: 11px; font-family: "MS Sans Serif"; }
.pen1 { stroke: rgb(0,0,0); stroke-width: 7; stroke-linejoin: round; }
.brush1 { fill: none; }
.font1 { font-weight: bold; font-size: 16px; font-family: System, sans-serif; }
</style>
<g>
<path class="pen1" d="M 156.0,132.0 A 80.0,80.0 0 0 0 156.0,260.0" fill="none"/>
<line class="pen1" fill="none" x1="156" x2="284" y1="260" y2="260"/>
<line class="pen1" fill="none" x1="156" x2="284" y1="132" y2="132"/>
<path class="pen1" d="M 284.0,260.0 A 80.0,80.0 0 0 0 284.0,132.0" fill="none"/>
<path class="pen1" d="M 91.59009742330268,163.59009742330267 A 22.5,22.5 0 0 0 92.09480211255891,195.89908162211472" fill="none"/>
<path class="pen1" d="M 59.59009742330268,163.59009742330267 A 22.5,22.5 0 0 0 60.09480211255891,195.89908162211472" fill="none"/>
<path class="pen1" d="M 27.59009742330268,163.59009742330267 A 22.5,22.5 0 0 0 28.09480211255891,195.89908162211472" fill="none"/>
<line class="pen1" fill="none" x1="188" x2="220" y1="228" y2="196"/>
<line class="pen1" fill="none" x1="220" x2="252" y1="196" y2="228"/>
</g>
</svg>
