<?xml version="1.0" encoding="UTF-8" standalone="no"?>
<!DOCTYPE svg PUBLIC "-//W3C//DTD SVG 1.0//EN" "http://www.w3.org/TR/2001/REC-SVG-20010904/DTD/svg10.dtd">
<svg xmlns="http://www.w3.org/2000/svg" xmlns:xlink="http://www.w3.org/1999/xlink" fill-rule="evenodd" height="4.541666666666667in" preserveAspectRatio="none" stroke-linecap="round" viewBox="0 0 472 328" width="6.552083333333333in">
<style type="text/css">
.brush0 { fill: rgb(255,255,255); }
.pen0 { stroke: rgb(0,0,0); stroke-width: 1; stroke-linejoin: round; }
.font0 { font-size: 11px; font-family: "MS Sans Serif"; }
.pen1 { stroke: rgb(0,0,0); stroke-width: 7; stroke-linejoin: round; }
.brush1 { fill: none; }
.font1 { font-weight: bold; font-size: 16px; font-family: System, sans-serif; }
</style>
<g>
<line class="pen1" fill="none" x1="108" x2="236" y1="164" y2="164"/>
<line class="pen1" fill="none" x1="108" x2="236" y1="228" y2="228"/>
<line class="pen1" fill="none" x1="140" x2="140" y1="132" y2="260"/>
<line class="pen1" fill="none" x1="204" x2="204" y1="132" y2="260"/>
<line class="pen1" fill="none" x1="108" x2="172" y1="196" y2="132"/>
<line class="pen1" fill="none" x1="172" x2="236" y1="132" y2="196"/>
<line class="pen1" fill="none" x1="12" x2="76" y1="196" y2="196"/>
<ellipse class="pen1 brush1" cx="44" cy="228" rx="1" ry="1"/>
<ellipse class="pen1 brush1" cx="44" cy="164" rx="1" ry="1"/>
<line class="pen1" fill="none" x1="300" x2="428" y1="132" y2="132"/>
<line class="pen1" fill="none" x1="300" x2="428" y1="260" y2="260"/>
<path class="pen1" d="M 428.0,260.0 A 80.0,80.0 0 0 0 428.0,132.0" fill="none"/>
<path class="pen1" d="M 300.0,132.0 A 80.0,80.0 0 0 0 300.0,260.0" fill="none"/>
<line class="pen1" fill="none" x1="332" x2="364" y1="84" y2="116"/>
<line class="pen1" fill="none" x1="364" x2="396" y1="116" y2="84"/>
</g>
</svg>
