<?xml version="1.0" encoding="UTF-8" standalone="no"?>
<!DOCTYPE svg PUBLIC "-//W3C//DTD SVG 1.0//EN" "http://www.w3.org/TR/2001/REC-SVG-20010904/DTD/svg10.dtd">
<svg xmlns="http://www.w3.org/2000/svg" xmlns:xlink="http://www.w3.org/1999/xlink" fill-rule="evenodd" height="4.541666666666667in" preserveAspectRatio="none" stroke-linecap="round" viewBox="0 0 408 328" width="5.65625in">
<style type="text_image/css">
.brush0 { fill: rgb(255,255,255); }
.pen0 { stroke: rgb(0,0,0); stroke-width: 1; stroke-linejoin: round; }
.font0 { font-size: 11px; font-family: "MS Sans Serif"; }
.pen1 { stroke: rgb(0,0,0); stroke-width: 7; stroke-linejoin: round; }
.brush1 { fill: none; }
.font1 { font-weight: bold; font-size: 16px; font-family: System, sans-serif; }
</style>
<g>
<line class="pen1" fill="none" x1="12" x2="12" y1="132" y2="260"/>
<line class="pen1" fill="none" x1="76" x2="76" y1="132" y2="260"/>
<path class="pen1" d="M 77.34441281461922,130.78162588675133 A 45.0,45.0 0 0 0 10.655587185380774,130.78162588675133" fill="none"/>
<path class="pen1" d="M 12.251141751250248,131.74493415888648 A 45.0,45.5 0 0 0 75.74885824874976,131.74493415888648" fill="none"/>
<path class="pen1" d="M 12.251141751250248,259.74493415888645 A 45.0,45.5 0 0 0 75.74885824874976,259.74493415888645" fill="none"/>
<circle class="pen1" cx="140.0" cy="228.0" fill="none" r="32.0"/>
<circle class="pen1" cx="268.0" cy="196.0" fill="none" r="32.0"/>
<path class="pen1" d="M 187.67335854398792,259.6733585439879 A 45.5,45.5 0 0 0 187.67335854398792,195.32664145601208" fill="none"/>
<line class="pen1" fill="none" x1="300" x2="236" y1="132" y2="260"/>
<line class="pen1" fill="none" x1="236" x2="300" y1="260" y2="260"/>
<line class="pen1" fill="none" x1="364" x2="332" y1="132" y2="164"/>
<line class="pen1" fill="none" x1="364" x2="396" y1="132" y2="164"/>
<line class="pen1" fill="none" x1="364" x2="364" y1="132" y2="260"/>
</g>
</svg>
