<?xml version="1.0" encoding="UTF-8" standalone="no"?>
<!DOCTYPE svg PUBLIC "-//W3C//DTD SVG 1.0//EN" "http://www.w3.org/TR/2001/REC-SVG-20010904/DTD/svg10.dtd">
<svg xmlns="http://www.w3.org/2000/svg" xmlns:xlink="http://www.w3.org/1999/xlink" fill-rule="evenodd" height="4.541666666666667in" preserveAspectRatio="none" stroke-linecap="round" viewBox="0 0 376 328" width="5.21875in">
<style type="text/css">
.brush0 { fill: rgb(255,255,255); }
.pen0 { stroke: rgb(0,0,0); stroke-width: 1; stroke-linejoin: round; }
.font0 { font-size: 11px; font-family: "MS Sans Serif"; }
.pen1 { stroke: rgb(0,0,0); stroke-width: 7; stroke-linejoin: round; }
.brush1 { fill: none; }
.brush2 { fill: rgb(0,0,0); }
.font1 { font-weight: bold; font-size: 16px; font-family: System, sans-serif; }
</style>
<g>
<line class="pen1" fill="none" x1="12" x2="140" y1="196" y2="196"/>
<circle class="pen1" cx="44.0" cy="228.0" fill="none" r="32.0"/>
<line class="pen1" fill="none" x1="66" x2="21" y1="205" y2="250"/>
<line class="pen1" fill="none" x1="21" x2="66" y1="205" y2="250"/>
<circle class="pen1" cx="108.0" cy="228.0" fill="none" r="32.0"/>
<line class="pen1" fill="none" x1="130" x2="85" y1="205" y2="250"/>
<line class="pen1" fill="none" x1="85" x2="130" y1="205" y2="250"/>
<line class="pen1" fill="none" x1="108" x2="140" y1="164" y2="196"/>
<line class="pen1" fill="none" x1="124" x2="92" y1="148" y2="180"/>
<line class="pen1" fill="none" x1="172" x2="300" y1="196" y2="196"/>
<line class="pen1" fill="none" x1="300" x2="268" y1="196" y2="164"/>
<line class="pen1" fill="none" x1="300" x2="268" y1="196" y2="228"/>
<line class="pen1" fill="none" x1="300" x2="300" y1="132" y2="260"/>
<line class="pen1" fill="none" x1="332" x2="332" y1="164" y2="212"/>
<ellipse class="pen1 brush2" cx="332" cy="227" rx="1" ry="1"/>
</g>
</svg>
