<?xml version="1.0" encoding="UTF-8" standalone="no"?>
<!DOCTYPE svg PUBLIC "-//W3C//DTD SVG 1.0//EN" "http://www.w3.org/TR/2001/REC-SVG-20010904/DTD/svg10.dtd">
<svg xmlns="http://www.w3.org/2000/svg" xmlns:xlink="http://www.w3.org/1999/xlink" fill-rule="evenodd" height="4.541666666666667in" preserveAspectRatio="none" stroke-linecap="round" viewBox="0 0 536 328" width="7.4375in">
<style type="text_image/css">
.brush0 { fill: rgb(255,255,255); }
.pen0 { stroke: rgb(0,0,0); stroke-width: 1; stroke-linejoin: round; }
.font0 { font-size: 11px; font-family: "MS Sans Serif"; }
.pen1 { stroke: rgb(0,0,0); stroke-width: 7; stroke-linejoin: round; }
.brush1 { fill: none; }
.font1 { font-weight: bold; font-size: 16px; font-family: System, sans-serif; }
</style>
<g>
<line class="pen1" fill="none" x1="12" x2="140" y1="260" y2="260"/>
<line class="pen1" fill="none" x1="204" x2="204" y1="132" y2="260"/>
<line class="pen1" fill="none" x1="236" x2="364" y1="260" y2="260"/>
<line class="pen1" fill="none" x1="396" x2="524" y1="260" y2="260"/>
<circle class="pen1" cx="300.0" cy="196.0" fill="none" r="64.0"/>
<path class="pen1" d="M 396.00001519847865,163.9999980776628 A 127.5,128.0 0 0 0 460.18409575718243,259.67010040312914" fill="none"/>
<path class="pen1" d="M 460.0,164.0 A 32.0,32.0 0 1 0 396.0,164.0" fill="none"/>
<path class="pen1" d="M 524.0,164.0 A 32.0,32.0 0 1 0 460.0,164.0" fill="none"/>
<path class="pen1" d="M 459.75343867296755,259.5616687519423 A 128.0,128.0 0 0 0 523.9961244449861,163.9995117411006" fill="none"/>
<ellipse class="pen1 brush1" cx="172" cy="196" rx="1" ry="1"/>
<circle class="pen1" cx="76.0" cy="196.0" fill="none" r="64.0"/>
</g>
</svg>
