<?xml version="1.0" encoding="UTF-8" standalone="no"?>
<!DOCTYPE svg PUBLIC "-//W3C//DTD SVG 1.0//EN" "http://www.w3.org/TR/2001/REC-SVG-20010904/DTD/svg10.dtd">
<svg xmlns="http://www.w3.org/2000/svg" xmlns:xlink="http://www.w3.org/1999/xlink" fill-rule="evenodd" height="4.541666666666667in" preserveAspectRatio="none" stroke-linecap="round" viewBox="0 0 376 328" width="5.21875in">
<style type="text/css">
.brush0 { fill: rgb(255,255,255); }
.pen0 { stroke: rgb(0,0,0); stroke-width: 1; stroke-linejoin: round; }
.font0 { font-size: 11px; font-family: "MS Sans Serif"; }
.pen1 { stroke: rgb(0,0,0); stroke-width: 7; stroke-linejoin: round; }
.brush1 { fill: none; }
.brush2 { fill: rgb(0,0,0); }
.font1 { font-weight: bold; font-size: 16px; font-family: System, sans-serif; }
</style>
<g>
<path class="pen1" d="M 27.74885824874975,195.74493415888648 A 45.0,45.5 0 0 0 27.74094602358706,131.247103234097" fill="none"/>
<path class="pen1" d="M 27.32664145601209,195.32664145601208 A 45.5,45.5 0 0 0 27.833215521631903,260.1720792237131" fill="none"/>
<path class="pen1" d="M 237.2825294592593,194.8555890978917 A 45.5,45.0 0 0 0 170.19599593641186,194.33917086209348" fill="none"/>
<path class="pen1" d="M 235.8332155216319,196.1720792237131 A 45.5,45.5 0 0 0 299.6733585439879,195.67335854398792" fill="none"/>
<path class="pen1" d="M 237.2825294592593,258.8555890978917 A 45.5,45.0 0 0 0 170.19599593641186,258.33917086209345" fill="none"/>
<path class="pen1" d="M 235.8332155216319,260.1720792237131 A 45.5,45.5 0 0 0 299.6733585439879,259.6733585439879" fill="none"/>
<line class="pen1" fill="none" x1="332" x2="332" y1="164" y2="212"/>
<ellipse class="pen1 brush2" cx="332" cy="227" rx="1" ry="1"/>
<line class="pen1" fill="none" x1="12" x2="28" y1="100" y2="68"/>
<line class="pen1" fill="none" x1="28" x2="44" y1="68" y2="100"/>
<circle class="pen1" cx="108.0" cy="196.0" fill="none" r="32.0"/>
<line class="pen1" fill="none" x1="76" x2="140" y1="260" y2="260"/>
</g>
</svg>
