<?xml version="1.0" encoding="UTF-8" standalone="no"?>
<!DOCTYPE svg PUBLIC "-//W3C//DTD SVG 1.0//EN" "http://www.w3.org/TR/2001/REC-SVG-20010904/DTD/svg10.dtd">
<svg xmlns="http://www.w3.org/2000/svg" xmlns:xlink="http://www.w3.org/1999/xlink" fill-rule="evenodd" height="4.541666666666667in" preserveAspectRatio="none" stroke-linecap="round" viewBox="0 0 504 328" width="6.989583333333333in">
<style type="text/css">
.brush0 { fill: rgb(255,255,255); }
.pen0 { stroke: rgb(0,0,0); stroke-width: 1; stroke-linejoin: round; }
.font0 { font-size: 11px; font-family: "MS Sans Serif"; }
.pen1 { stroke: rgb(0,0,0); stroke-width: 7; stroke-linejoin: round; }
.brush1 { fill: none; }
.font1 { font-weight: bold; font-size: 16px; font-family: System, sans-serif; }
</style>
<g>
<circle class="pen1" cx="76.0" cy="196.0" fill="none" r="64.0"/>
<circle class="pen1" cx="76.0" cy="228.0" fill="none" r="32.0"/>
<line class="pen1" fill="none" x1="98" x2="53" y1="205" y2="250"/>
<line class="pen1" fill="none" x1="53" x2="98" y1="205" y2="250"/>
<path class="pen1" d="M 268.0,260.0 A 64.0,64.0 0 0 0 268.0,132.0" fill="none"/>
<path class="pen1" d="M 204.0,196.0 A 64.0,64.0 0 0 0 268.0,260.0" fill="none"/>
<line class="pen1" fill="none" x1="172" x2="204" y1="228" y2="196"/>
<line class="pen1" fill="none" x1="204" x2="236" y1="196" y2="228"/>
<path class="pen1" d="M 429.2825294592593,194.8555890978917 A 45.5,45.0 0 0 0 362.19599593641186,194.33917086209348" fill="none"/>
<path class="pen1" d="M 427.8332155216319,196.1720792237131 A 45.5,45.5 0 0 0 491.6733585439879,195.67335854398792" fill="none"/>
<path class="pen1" d="M 429.2825294592593,258.8555890978917 A 45.5,45.0 0 0 0 362.19599593641186,258.33917086209345" fill="none"/>
<path class="pen1" d="M 427.8332155216319,260.1720792237131 A 45.5,45.5 0 0 0 491.6733585439879,259.6733585439879" fill="none"/>
</g>
</svg>
