<?xml version="1.0" encoding="UTF-8" standalone="no"?>
<!DOCTYPE svg PUBLIC "-//W3C//DTD SVG 1.0//EN" "http://www.w3.org/TR/2001/REC-SVG-20010904/DTD/svg10.dtd">
<svg xmlns="http://www.w3.org/2000/svg" xmlns:xlink="http://www.w3.org/1999/xlink" fill-rule="evenodd" height="4.541666666666667in" preserveAspectRatio="none" stroke-linecap="round" viewBox="0 0 424 328" width="5.885416666666667in">
<style type="text/css">
.brush0 { fill: rgb(255,255,255); }
.pen0 { stroke: rgb(0,0,0); stroke-width: 1; stroke-linejoin: round; }
.font0 { font-size: 11px; font-family: "MS Sans Serif"; }
.pen1 { stroke: rgb(0,0,0); stroke-width: 7; stroke-linejoin: round; }
.brush1 { fill: none; }
.font1 { font-weight: bold; font-size: 16px; font-family: System, sans-serif; }
</style>
<g>
<line class="pen1" fill="none" x1="12" x2="140" y1="132" y2="132"/>
<line class="pen1" fill="none" x1="76" x2="76" y1="68" y2="132"/>
<circle class="pen1" cx="76.0" cy="100.0" fill="none" r="32.0"/>
<line class="pen1" fill="none" x1="76" x2="76" y1="132" y2="196"/>
<line class="pen1" fill="none" x1="76" x2="76" y1="132" y2="260"/>
<line class="pen1" fill="none" x1="44" x2="108" y1="260" y2="260"/>
<line class="pen1" fill="none" x1="204" x2="204" y1="196" y2="260"/>
<line class="pen1" fill="none" x1="172" x2="236" y1="260" y2="260"/>
<line class="pen1" fill="none" x1="172" x2="236" y1="196" y2="196"/>
<circle class="pen1" cx="332.0" cy="196.0" fill="none" r="64.0"/>
<path class="pen1" d="M 299.59009742330267,259.59009742330267 A 22.5,22.5 0 0 0 300.0948021125589,291.8990816221147" fill="none"/>
<path class="pen1" d="M 331.59009742330267,259.59009742330267 A 22.5,22.5 0 0 0 332.0948021125589,291.8990816221147" fill="none"/>
<path class="pen1" d="M 363.59009742330267,259.59009742330267 A 22.5,22.5 0 0 0 364.0948021125589,291.8990816221147" fill="none"/>
<line class="pen1" fill="none" x1="412" x2="380" y1="260" y2="292"/>
<line class="pen1" fill="none" x1="380" x2="412" y1="292" y2="324"/>
<line class="pen1" fill="none" x1="332" x2="332" y1="164" y2="228"/>
<line class="pen1" fill="none" x1="300" x2="364" y1="228" y2="228"/>
<ellipse class="pen1 brush1" cx="300" cy="164" rx="1" ry="1"/>
<ellipse class="pen1 brush1" cx="364" cy="164" rx="1" ry="1"/>
</g>
</svg>
