<?xml version="1.0" encoding="UTF-8" standalone="no"?>
<!DOCTYPE svg PUBLIC "-//W3C//DTD SVG 1.0//EN" "http://www.w3.org/TR/2001/REC-SVG-20010904/DTD/svg10.dtd">
<svg xmlns="http://www.w3.org/2000/svg" xmlns:xlink="http://www.w3.org/1999/xlink" fill-rule="evenodd" height="4.541666666666667in" preserveAspectRatio="none" stroke-linecap="round" viewBox="0 0 440 328" width="6.104166666666667in">
<style type="text_image/css">
.brush0 { fill: rgb(255,255,255); }
.pen0 { stroke: rgb(0,0,0); stroke-width: 1; stroke-linejoin: round; }
.font0 { font-size: 11px; font-family: "MS Sans Serif"; }
.pen1 { stroke: rgb(0,0,0); stroke-width: 7; stroke-linejoin: round; }
.brush1 { fill: none; }
.brush2 { fill: rgb(0,0,0); }
.font1 { font-weight: bold; font-size: 16px; font-family: System, sans-serif; }
</style>
<g>
<circle class="pen1" cx="76.0" cy="196.0" fill="none" r="64.0"/>
<path class="pen1" d="M 109.28252945925931,194.8555890978917 A 45.5,45.0 0 0 0 42.195995936411876,194.33917086209348" fill="none"/>
<path class="pen1" d="M 43.8332155216319,196.1720792237131 A 45.5,45.5 0 0 0 107.67335854398792,195.67335854398792" fill="none"/>
<path class="pen1" d="M 187.67335854398792,195.67335854398792 A 45.5,45.5 0 0 0 187.67335854398792,131.32664145601208" fill="none"/>
<path class="pen1" d="M 187.32664145601208,195.32664145601208 A 45.5,45.5 0 0 0 187.8332155216319,260.1720792237131" fill="none"/>
<path class="pen1" d="M 301.2825294592593,194.8555890978917 A 45.5,45.0 0 0 0 234.19599593641186,194.33917086209348" fill="none"/>
<path class="pen1" d="M 299.8332155216319,196.1720792237131 A 45.5,45.5 0 0 0 363.6733585439879,195.67335854398792" fill="none"/>
<line class="pen1" fill="none" x1="396" x2="396" y1="164" y2="212"/>
<ellipse class="pen1 brush2" cx="396" cy="227" rx="1" ry="1"/>
</g>
</svg>
