<?xml version="1.0" encoding="UTF-8" standalone="no"?>
<!DOCTYPE svg PUBLIC "-//W3C//DTD SVG 1.0//EN" "http://www.w3.org/TR/2001/REC-SVG-20010904/DTD/svg10.dtd">
<svg xmlns="http://www.w3.org/2000/svg" xmlns:xlink="http://www.w3.org/1999/xlink" fill-rule="evenodd" height="4.541666666666667in" preserveAspectRatio="none" stroke-linecap="round" viewBox="0 0 680 328" width="9.4375in">
<style type="text_image/css">
.brush0 { fill: rgb(255,255,255); }
.pen0 { stroke: rgb(0,0,0); stroke-width: 1; stroke-linejoin: round; }
.font0 { font-size: 11px; font-family: "MS Sans Serif"; }
.pen1 { stroke: rgb(0,0,0); stroke-width: 7; stroke-linejoin: round; }
.brush1 { fill: none; }
.font1 { font-size: 78px; font-family: Arial; }
.font2 { font-weight: bold; font-size: 16px; font-family: System, sans-serif; }
</style>
<g>
<line class="pen1" fill="none" x1="300" x2="428" y1="260" y2="260"/>
<line class="pen1" fill="none" x1="364" x2="364" y1="196" y2="260"/>
<line class="pen1" fill="none" x1="364" x2="428" y1="132" y2="132"/>
<line class="pen1" fill="none" x1="428" x2="428" y1="132" y2="196"/>
<line class="pen1" fill="none" x1="428" x2="364" y1="196" y2="196"/>
<line class="pen1" fill="none" x1="364" x2="364" y1="196" y2="132"/>
<circle class="pen1" cx="204.0" cy="196.0" fill="none" r="32.0"/>
<path class="pen1" d="M 268.0,164.0 A 32.0,32.0 0 1 0 204.0,164.0" fill="none"/>
<path class="pen1" d="M 203.75343867296755,259.5616687519423 A 128.0,128.0 0 0 0 267.99612444498604,163.9995117411006" fill="none"/>
<text class="font1" fill="rgb(0,0,0)" stroke="none" style="dominant-baseline: alphabetic;" x="460" xml:lang="en" xml:space="preserve" y="260">D</text>
<path class="pen1" d="M 140.0,196.0 A 64.0,64.0 0 1 0 12.0,196.0" fill="none"/>
<line class="pen1" fill="none" x1="12" x2="12" y1="196" y2="260"/>
<line class="pen1" fill="none" x1="12" x2="140" y1="260" y2="260"/>
<line class="pen1" fill="none" x1="140" x2="140" y1="260" y2="196"/>
<text class="font1" fill="rgb(0,0,0)" stroke="none" style="dominant-baseline: alphabetic;" x="524" xml:lang="en" xml:space="preserve" y="260">E</text>
<text class="font1" fill="rgb(0,0,0)" stroke="none" style="dominant-baseline: alphabetic;" x="588" xml:lang="en" xml:space="preserve" y="260">U</text>
</g>
</svg>
