<?xml version="1.0" encoding="UTF-8" standalone="no"?>
<!DOCTYPE svg PUBLIC "-//W3C//DTD SVG 1.0//EN" "http://www.w3.org/TR/2001/REC-SVG-20010904/DTD/svg10.dtd">
<svg xmlns="http://www.w3.org/2000/svg" xmlns:xlink="http://www.w3.org/1999/xlink" fill-rule="evenodd" height="4.541666666666667in" preserveAspectRatio="none" stroke-linecap="round" viewBox="0 0 472 328" width="6.552083333333333in">
<style type="text_image/css">
.brush0 { fill: rgb(255,255,255); }
.pen0 { stroke: rgb(0,0,0); stroke-width: 1; stroke-linejoin: round; }
.font0 { font-size: 11px; font-family: "MS Sans Serif"; }
.pen1 { stroke: rgb(0,0,0); stroke-width: 7; stroke-linejoin: round; }
.brush1 { fill: none; }
.brush2 { fill: rgb(0,0,0); }
.font1 { font-weight: bold; font-size: 16px; font-family: System, sans-serif; }
</style>
<g>
<path class="pen1" d="M 77.34441281461922,258.7816258867513 A 45.0,45.0 0 0 0 10.655587185380774,258.7816258867513" fill="none"/>
<path class="pen1" d="M 75.8332155216319,260.1720792237131 A 45.5,45.5 0 0 0 139.67335854398792,259.6733585439879" fill="none"/>
<line class="pen1" fill="none" x1="204" x2="172" y1="132" y2="164"/>
<line class="pen1" fill="none" x1="204" x2="236" y1="132" y2="164"/>
<line class="pen1" fill="none" x1="204" x2="204" y1="132" y2="260"/>
<line class="pen1" fill="none" x1="300" x2="268" y1="164" y2="196"/>
<line class="pen1" fill="none" x1="268" x2="300" y1="196" y2="228"/>
<path class="pen1" d="M 331.6733585439879,195.67335854398792 A 45.5,45.5 0 0 0 331.6733585439879,131.32664145601208" fill="none"/>
<path class="pen1" d="M 331.3266414560121,195.32664145601208 A 45.5,45.5 0 0 0 331.8332155216319,260.1720792237131" fill="none"/>
<line class="pen1" fill="none" x1="364" x2="396" y1="164" y2="196"/>
<line class="pen1" fill="none" x1="396" x2="364" y1="196" y2="228"/>
<line class="pen1" fill="none" x1="428" x2="428" y1="164" y2="212"/>
<ellipse class="pen1 brush2" cx="428" cy="227" rx="1" ry="1"/>
</g>
</svg>
