<?xml version="1.0" encoding="UTF-8" standalone="no"?>
<!DOCTYPE svg PUBLIC "-//W3C//DTD SVG 1.0//EN" "http://www.w3.org/TR/2001/REC-SVG-20010904/DTD/svg10.dtd">
<svg xmlns="http://www.w3.org/2000/svg" xmlns:xlink="http://www.w3.org/1999/xlink" fill-rule="evenodd" height="4.541666666666667in" preserveAspectRatio="none" stroke-linecap="round" viewBox="0 0 408 328" width="5.65625in">
<style type="text/css">
.brush0 { fill: rgb(255,255,255); }
.pen0 { stroke: rgb(0,0,0); stroke-width: 1; stroke-linejoin: round; }
.font0 { font-size: 11px; font-family: "MS Sans Serif"; }
.pen1 { stroke: rgb(0,0,0); stroke-width: 7; stroke-linejoin: round; }
.brush1 { fill: none; }
.font1 { font-weight: bold; font-size: 16px; font-family: System, sans-serif; }
</style>
<g>
<ellipse class="pen1 brush1" cx="44" cy="196" rx="1" ry="1"/>
<circle class="pen1" cx="44.0" cy="196.0" fill="none" r="32.0"/>
<path class="pen1" d="M 172.0,260.0 A 80.0,80.0 0 0 0 172.0,132.0" fill="none"/>
<line class="pen1" fill="none" x1="12" x2="76" y1="260" y2="260"/>
<line class="pen1" fill="none" x1="108" x2="236" y1="260" y2="260"/>
<path class="pen1" d="M 172.0,260.0 A 64.0,64.0 0 0 0 172.0,132.0" fill="none"/>
<line class="pen1" fill="none" x1="332" x2="332" y1="164" y2="292"/>
<line class="pen1" fill="none" x1="316" x2="348" y1="244" y2="276"/>
<line class="pen1" fill="none" x1="348" x2="316" y1="244" y2="276"/>
<path class="pen1" d="M 333.2825294592593,194.8555890978917 A 45.5,45.0 0 0 0 266.19599593641186,194.33917086209348" fill="none"/>
<path class="pen1" d="M 331.8332155216319,196.1720792237131 A 45.5,45.5 0 0 0 395.6733585439879,195.67335854398792" fill="none"/>
<line class="pen1" fill="none" x1="332" x2="332" y1="132" y2="164"/>
</g>
</svg>
