<?xml version="1.0" encoding="UTF-8" standalone="no"?>
<!DOCTYPE svg PUBLIC "-//W3C//DTD SVG 1.0//EN" "http://www.w3.org/TR/2001/REC-SVG-20010904/DTD/svg10.dtd">
<svg xmlns="http://www.w3.org/2000/svg" xmlns:xlink="http://www.w3.org/1999/xlink" fill-rule="evenodd" height="4.541666666666667in" preserveAspectRatio="none" stroke-linecap="round" viewBox="0 0 456 328" width="6.322916666666667in">
<style type="text_image/css">
.brush0 { fill: rgb(255,255,255); }
.pen0 { stroke: rgb(0,0,0); stroke-width: 1; stroke-linejoin: round; }
.font0 { font-size: 11px; font-family: "MS Sans Serif"; }
.pen1 { stroke: rgb(0,0,0); stroke-width: 7; stroke-linejoin: round; }
.brush1 { fill: none; }
.font1 { font-weight: bold; font-size: 16px; font-family: System, sans-serif; }
</style>
<g>
<line class="pen1" fill="none" x1="12" x2="76" y1="260" y2="260"/>
<line class="pen1" fill="none" x1="12" x2="76" y1="164" y2="164"/>
<line class="pen1" fill="none" x1="76" x2="76" y1="164" y2="228"/>
<line class="pen1" fill="none" x1="76" x2="12" y1="228" y2="228"/>
<line class="pen1" fill="none" x1="12" x2="12" y1="228" y2="164"/>
<line class="pen1" fill="none" x1="220" x2="252" y1="260" y2="196"/>
<line class="pen1" fill="none" x1="252" x2="284" y1="196" y2="260"/>
<line class="pen1" fill="none" x1="284" x2="316" y1="260" y2="196"/>
<line class="pen1" fill="none" x1="316" x2="348" y1="196" y2="260"/>
<line class="pen1" fill="none" x1="220" x2="348" y1="196" y2="196"/>
<line class="pen1" fill="none" x1="412" x2="348" y1="132" y2="196"/>
<line class="pen1" fill="none" x1="412" x2="444" y1="132" y2="164"/>
<path class="pen1" d="M 123.59009742330268,163.59009742330267 A 22.5,22.5 0 0 0 124.09480211255891,195.89908162211472" fill="none"/>
<path class="pen1" d="M 187.5900974233027,163.59009742330267 A 22.5,22.5 0 0 0 188.0948021125589,195.89908162211472" fill="none"/>
<path class="pen1" d="M 155.5900974233027,163.59009742330267 A 22.5,22.5 0 0 0 156.0948021125589,195.89908162211472" fill="none"/>
</g>
</svg>
