<?xml version="1.0" encoding="UTF-8" standalone="no"?>
<!DOCTYPE svg PUBLIC "-//W3C//DTD SVG 1.0//EN" "http://www.w3.org/TR/2001/REC-SVG-20010904/DTD/svg10.dtd">
<svg xmlns="http://www.w3.org/2000/svg" xmlns:xlink="http://www.w3.org/1999/xlink" fill-rule="evenodd" height="4.541666666666667in" preserveAspectRatio="none" stroke-linecap="round" viewBox="0 0 472 328" width="6.552083333333333in">
<style type="text/css">
.brush0 { fill: rgb(255,255,255); }
.pen0 { stroke: rgb(0,0,0); stroke-width: 1; stroke-linejoin: round; }
.font0 { font-size: 11px; font-family: "MS Sans Serif"; }
.pen1 { stroke: rgb(0,0,0); stroke-width: 7; stroke-linejoin: round; }
.brush1 { fill: none; }
.font1 { font-weight: bold; font-size: 16px; font-family: System, sans-serif; }
</style>
<g>
<path class="pen1" d="M 108.00001519847862,163.9999980776628 A 127.5,128.0 0 0 0 172.18409575718243,259.67010040312914" fill="none"/>
<path class="pen1" d="M 172.0,164.0 A 32.0,32.0 0 1 0 108.0,164.0" fill="none"/>
<path class="pen1" d="M 236.0,164.0 A 32.0,32.0 0 1 0 172.0,164.0" fill="none"/>
<path class="pen1" d="M 171.81590424281757,259.6701004031291 A 127.5,128.0 0 0 0 235.99998480152138,163.99999807766278" fill="none"/>
<line class="pen1" fill="none" x1="332" x2="332" y1="196" y2="260"/>
<line class="pen1" fill="none" x1="332" x2="460" y1="260" y2="260"/>
<line class="pen1" fill="none" x1="460" x2="460" y1="260" y2="196"/>
<line class="pen1" fill="none" x1="332" x2="396" y1="196" y2="132"/>
<line class="pen1" fill="none" x1="396" x2="460" y1="132" y2="196"/>
<line class="pen1" fill="none" x1="268" x2="396" y1="196" y2="196"/>
<line class="pen1" fill="none" x1="396" x2="364" y1="196" y2="164"/>
<line class="pen1" fill="none" x1="396" x2="364" y1="196" y2="228"/>
<circle class="pen1" cx="44.0" cy="196.0" fill="none" r="32.0"/>
</g>
</svg>
