<?xml version="1.0" encoding="UTF-8" standalone="no"?>
<!DOCTYPE svg PUBLIC "-//W3C//DTD SVG 1.0//EN" "http://www.w3.org/TR/2001/REC-SVG-20010904/DTD/svg10.dtd">
<svg xmlns="http://www.w3.org/2000/svg" xmlns:xlink="http://www.w3.org/1999/xlink" fill-rule="evenodd" height="4.541666666666667in" preserveAspectRatio="none" stroke-linecap="round" viewBox="0 0 568 328" width="7.885416666666667in">
<style type="text/css">
.brush0 { fill: rgb(255,255,255); }
.pen0 { stroke: rgb(0,0,0); stroke-width: 1; stroke-linejoin: round; }
.font0 { font-size: 11px; font-family: "MS Sans Serif"; }
.pen1 { stroke: rgb(0,0,0); stroke-width: 7; stroke-linejoin: round; }
.brush1 { fill: none; }
.brush2 { fill: rgb(0,0,0); }
.font1 { font-weight: bold; font-size: 16px; font-family: System, sans-serif; }
</style>
<g>
<line class="pen1" fill="none" x1="172" x2="300" y1="260" y2="260"/>
<line class="pen1" fill="none" x1="332" x2="396" y1="260" y2="260"/>
<circle class="pen1" cx="236.0" cy="228.0" fill="none" r="32.0"/>
<circle class="pen1" cx="364.0" cy="196.0" fill="none" r="32.0"/>
<circle class="pen1" cx="460.0" cy="196.0" fill="none" r="32.0"/>
<path class="pen1" d="M 172.0,324.0 A 64.0,64.0 0 0 0 236.0,260.0" fill="none"/>
<ellipse class="pen1 brush1" cx="364" cy="196" rx="1" ry="1"/>
<circle class="pen1" cx="76.0" cy="196.0" fill="none" r="32.0"/>
<line class="pen1" fill="none" x1="44" x2="108" y1="260" y2="260"/>
<path class="pen1" d="M 77.34441281461922,194.78162588675133 A 45.0,45.0 0 0 0 10.655587185380774,194.78162588675133" fill="none"/>
<path class="pen1" d="M 75.8332155216319,196.1720792237131 A 45.5,45.5 0 0 0 139.67335854398792,195.67335854398792" fill="none"/>
<line class="pen1" fill="none" x1="44" x2="76" y1="228" y2="260"/>
<line class="pen1" fill="none" x1="76" x2="108" y1="260" y2="228"/>
<line class="pen1" fill="none" x1="524" x2="524" y1="164" y2="212"/>
<ellipse class="pen1 brush2" cx="524" cy="227" rx="1" ry="1"/>
</g>
</svg>
