<?xml version="1.0" encoding="UTF-8" standalone="no"?>
<!DOCTYPE svg PUBLIC "-//W3C//DTD SVG 1.0//EN" "http://www.w3.org/TR/2001/REC-SVG-20010904/DTD/svg10.dtd">
<svg xmlns="http://www.w3.org/2000/svg" xmlns:xlink="http://www.w3.org/1999/xlink" fill-rule="evenodd" height="4.541666666666667in" preserveAspectRatio="none" stroke-linecap="round" viewBox="0 0 504 328" width="6.989583333333333in">
<style type="text_image/css">
.brush0 { fill: rgb(255,255,255); }
.pen0 { stroke: rgb(0,0,0); stroke-width: 1; stroke-linejoin: round; }
.font0 { font-size: 11px; font-family: "MS Sans Serif"; }
.pen1 { stroke: rgb(0,0,0); stroke-width: 7; stroke-linejoin: round; }
.brush1 { fill: none; }
.brush2 { fill: rgb(0,0,0); }
.font1 { font-weight: bold; font-size: 16px; font-family: System, sans-serif; }
</style>
<g>
<line class="pen1" fill="none" x1="12" x2="140" y1="260" y2="260"/>
<path class="pen1" d="M 76.0,260.0 A 64.0,64.0 0 0 0 76.0,132.0" fill="none"/>
<path class="pen1" d="M 76.0,260.0 A 80.0,80.0 0 0 0 76.0,132.0" fill="none"/>
<path class="pen1" d="M 169.3128047094055,268.8752031396037 A 16.0,16.0 0 0 0 172.0,260.0" fill="none"/>
<ellipse class="pen1 brush2" cx="168" cy="259" rx="3" ry="3"/>
<path class="pen1" d="M 219.67335854398792,195.67335854398792 A 45.5,45.5 0 0 0 219.67335854398792,131.32664145601208" fill="none"/>
<path class="pen1" d="M 219.32664145601208,195.32664145601208 A 45.5,45.5 0 0 0 219.8332155216319,260.1720792237131" fill="none"/>
<path class="pen1" d="M 268.00001519847865,163.9999980776628 A 127.5,128.0 0 0 0 332.18409575718243,259.67010040312914" fill="none"/>
<path class="pen1" d="M 332.0,164.0 A 32.0,32.0 0 1 0 268.0,164.0" fill="none"/>
<path class="pen1" d="M 396.0,164.0 A 32.0,32.0 0 1 0 332.0,164.0" fill="none"/>
<path class="pen1" d="M 331.75343867296755,259.5616687519423 A 128.0,128.0 0 0 0 395.99612444498604,163.9995117411006" fill="none"/>
<line class="pen1" fill="none" x1="460" x2="428" y1="132" y2="164"/>
<line class="pen1" fill="none" x1="460" x2="492" y1="132" y2="164"/>
<line class="pen1" fill="none" x1="460" x2="460" y1="132" y2="260"/>
</g>
</svg>
