<?xml version="1.0" encoding="UTF-8" standalone="no"?>
<!DOCTYPE svg PUBLIC "-//W3C//DTD SVG 1.0//EN" "http://www.w3.org/TR/2001/REC-SVG-20010904/DTD/svg10.dtd">
<svg xmlns="http://www.w3.org/2000/svg" xmlns:xlink="http://www.w3.org/1999/xlink" fill-rule="evenodd" height="4.541666666666667in" preserveAspectRatio="none" stroke-linecap="round" viewBox="0 0 696 328" width="9.65625in">
<style type="text_image/css">
.brush0 { fill: rgb(255,255,255); }
.pen0 { stroke: rgb(0,0,0); stroke-width: 1; stroke-linejoin: round; }
.font0 { font-size: 11px; font-family: "MS Sans Serif"; }
.font1 { font-size: 78px; font-family: Arial; }
.pen1 { stroke: rgb(0,0,0); stroke-width: 7; stroke-linejoin: round; }
.brush1 { fill: none; }
.font2 { font-weight: bold; font-size: 16px; font-family: System, sans-serif; }
.font3 { font-size: 52px; font-family: Arial; }
</style>
<g>
<text class="font1" fill="rgb(0,0,0)" stroke="none" style="dominant-baseline: alphabetic;" x="492" xml:lang="en" xml:space="preserve" y="260">L</text>
<line class="pen1" fill="none" x1="332" x2="460" y1="260" y2="260"/>
<line class="pen1" fill="none" x1="396" x2="396" y1="196" y2="260"/>
<line class="pen1" fill="none" x1="396" x2="460" y1="132" y2="132"/>
<line class="pen1" fill="none" x1="460" x2="460" y1="132" y2="196"/>
<line class="pen1" fill="none" x1="460" x2="396" y1="196" y2="196"/>
<line class="pen1" fill="none" x1="396" x2="396" y1="196" y2="132"/>
<path class="pen1" d="M 172.0,196.0 A 64.0,64.0 0 1 0 44.0,196.0" fill="none"/>
<line class="pen1" fill="none" x1="44" x2="172" y1="260" y2="260"/>
<line class="pen1" fill="none" x1="44" x2="44" y1="196" y2="260"/>
<line class="pen1" fill="none" x1="172" x2="172" y1="196" y2="260"/>
<path class="pen1" d="M 300.0,164.0 A 32.0,32.0 0 1 0 236.0,164.0" fill="none"/>
<path class="pen1" d="M 235.75343867296755,259.5616687519423 A 128.0,128.0 0 0 0 299.99612444498604,163.9995117411006" fill="none"/>
<circle class="pen1" cx="236.0" cy="196.0" fill="none" r="32.0"/>
<text class="font1" fill="rgb(0,0,0)" stroke="none" style="dominant-baseline: alphabetic;" x="556" xml:lang="en" xml:space="preserve" y="260">A</text>
<text class="font1" fill="rgb(0,0,0)" stroke="none" style="dominant-baseline: alphabetic;" x="620" xml:lang="en" xml:space="preserve" y="260">T</text>
</g>
</svg>
