<?xml version="1.0" encoding="UTF-8" standalone="no"?>
<!DOCTYPE svg PUBLIC "-//W3C//DTD SVG 1.0//EN" "http://www.w3.org/TR/2001/REC-SVG-20010904/DTD/svg10.dtd">
<svg xmlns="http://www.w3.org/2000/svg" xmlns:xlink="http://www.w3.org/1999/xlink" fill-rule="evenodd" height="4.541666666666667in" preserveAspectRatio="none" stroke-linecap="round" viewBox="0 0 568 328" width="7.885416666666667in">
<style type="text_image/css">
.brush0 { fill: rgb(255,255,255); }
.pen0 { stroke: rgb(0,0,0); stroke-width: 1; stroke-linejoin: round; }
.font0 { font-size: 11px; font-family: "MS Sans Serif"; }
.pen1 { stroke: rgb(0,0,0); stroke-width: 7; stroke-linejoin: round; }
.brush1 { fill: none; }
.font1 { font-weight: bold; font-size: 16px; font-family: System, sans-serif; }
</style>
<g>
<line class="pen1" fill="none" x1="12" x2="76" y1="196" y2="260"/>
<line class="pen1" fill="none" x1="76" x2="12" y1="196" y2="260"/>
<line class="pen1" fill="none" x1="124" x2="124" y1="164" y2="228"/>
<line class="pen1" fill="none" x1="108" x2="140" y1="180" y2="212"/>
<line class="pen1" fill="none" x1="140" x2="108" y1="180" y2="212"/>
<line class="pen1" fill="none" x1="172" x2="300" y1="196" y2="196"/>
<line class="pen1" fill="none" x1="172" x2="204" y1="260" y2="196"/>
<line class="pen1" fill="none" x1="204" x2="236" y1="196" y2="260"/>
<line class="pen1" fill="none" x1="236" x2="268" y1="260" y2="196"/>
<line class="pen1" fill="none" x1="268" x2="300" y1="196" y2="260"/>
<path class="pen1" d="M 396.0,132.0 A 80.0,80.0 0 0 0 396.0,260.0" fill="none"/>
<line class="pen1" fill="none" x1="396" x2="524" y1="132" y2="132"/>
<line class="pen1" fill="none" x1="396" x2="524" y1="260" y2="260"/>
<path class="pen1" d="M 524.0,260.0 A 80.0,80.0 0 0 0 524.0,132.0" fill="none"/>
<path class="pen1" d="M 427.59009742330267,99.59009742330268 A 22.5,22.5 0 0 0 428.0948021125589,131.89908162211472" fill="none"/>
<path class="pen1" d="M 459.59009742330267,99.59009742330268 A 22.5,22.5 0 0 0 460.0948021125589,131.89908162211472" fill="none"/>
<path class="pen1" d="M 491.59009742330267,99.59009742330268 A 22.5,22.5 0 0 0 492.0948021125589,131.89908162211472" fill="none"/>
<line class="pen1" fill="none" x1="540" x2="508" y1="68" y2="100"/>
<line class="pen1" fill="none" x1="508" x2="540" y1="100" y2="132"/>
<path class="pen1" d="M 204.0,260.0 A 16.0,16.0 0 1 0 172.0,260.0" fill="none"/>
<path class="pen1" d="M 268.0,260.0 A 16.0,16.0 0 1 0 236.0,260.0" fill="none"/>
<path class="pen1" d="M 332.0,260.0 A 16.0,16.0 0 1 0 300.0,260.0" fill="none"/>
</g>
</svg>
