<?xml version="1.0" encoding="UTF-8" standalone="no"?>
<!DOCTYPE svg PUBLIC "-//W3C//DTD SVG 1.0//EN" "http://www.w3.org/TR/2001/REC-SVG-20010904/DTD/svg10.dtd">
<svg xmlns="http://www.w3.org/2000/svg" xmlns:xlink="http://www.w3.org/1999/xlink" fill-rule="evenodd" height="4.541666666666667in" preserveAspectRatio="none" stroke-linecap="round" viewBox="0 0 808 328" width="11.208333333333334in">
<style type="text/css">
.brush0 { fill: rgb(255,255,255); }
.pen0 { stroke: rgb(0,0,0); stroke-width: 1; stroke-linejoin: round; }
.font0 { font-size: 11px; font-family: "MS Sans Serif"; }
.pen1 { stroke: rgb(0,0,0); stroke-width: 7; stroke-linejoin: round; }
.brush1 { fill: none; }
.font1 { font-weight: bold; font-size: 16px; font-family: System, sans-serif; }
</style>
<g>
<line class="pen1" fill="none" x1="252" x2="220" y1="164" y2="196"/>
<line class="pen1" fill="none" x1="220" x2="252" y1="196" y2="228"/>
<path class="pen1" d="M 76.0,196.0 A 64.0,64.0 0 0 0 140.0,132.0" fill="none"/>
<path class="pen1" d="M 140.0,132.0 A 64.0,64.0 0 0 0 204.0,196.0" fill="none"/>
<line class="pen1" fill="none" x1="140" x2="140" y1="132" y2="260"/>
<circle class="pen1" cx="412.0" cy="196.0" fill="none" r="64.0"/>
<line class="pen1" fill="none" x1="348" x2="476" y1="260" y2="260"/>
<line class="pen1" fill="none" x1="508" x2="572" y1="196" y2="132"/>
<line class="pen1" fill="none" x1="572" x2="636" y1="132" y2="196"/>
<line class="pen1" fill="none" x1="556" x2="588" y1="68" y2="68"/>
<line class="pen1" fill="none" x1="588" x2="588" y1="68" y2="100"/>
<line class="pen1" fill="none" x1="588" x2="556" y1="100" y2="100"/>
<line class="pen1" fill="none" x1="556" x2="556" y1="100" y2="68"/>
<line class="pen1" fill="none" x1="716" x2="748" y1="68" y2="100"/>
<line class="pen1" fill="none" x1="748" x2="716" y1="68" y2="100"/>
<path class="pen1" d="M 668.0,196.0 A 64.0,64.0 0 0 0 732.0,132.0" fill="none"/>
<path class="pen1" d="M 732.0,132.0 A 64.0,64.0 0 0 0 796.0,196.0" fill="none"/>
<line class="pen1" fill="none" x1="732" x2="732" y1="132" y2="260"/>
<path class="pen1" d="M 28.0,228.0 A 16.0,16.0 0 1 0 12.0,212.0" fill="none"/>
<path class="pen1" d="M 12.0,244.0 A 16.0,16.0 0 1 0 28.0,228.0" fill="none"/>
<line class="pen1" fill="none" x1="284" x2="316" y1="196" y2="196"/>
<line class="pen1" fill="none" x1="316" x2="300" y1="196" y2="260"/>
</g>
</svg>
