<?xml version="1.0" encoding="UTF-8" standalone="no"?>
<!DOCTYPE svg PUBLIC "-//W3C//DTD SVG 1.0//EN" "http://www.w3.org/TR/2001/REC-SVG-20010904/DTD/svg10.dtd">
<svg xmlns="http://www.w3.org/2000/svg" xmlns:xlink="http://www.w3.org/1999/xlink" fill-rule="evenodd" height="4.541666666666667in" preserveAspectRatio="none" stroke-linecap="round" viewBox="0 0 152 328" width="2.1041666666666665in">
<style type="text_image/css">
.brush0 { fill: rgb(255,255,255); }
.pen0 { stroke: rgb(0,0,0); stroke-width: 1; stroke-linejoin: round; }
.font0 { font-size: 11px; font-family: "MS Sans Serif"; }
.pen1 { stroke: rgb(0,0,0); stroke-width: 7; stroke-linejoin: round; }
.brush1 { fill: none; }
.font1 { font-weight: bold; font-size: 16px; font-family: System, sans-serif; }
</style>
<g>
<path class="pen1" d="M 109.28252945925931,130.8555890978917 A 45.5,45.0 0 0 0 42.195995936411876,130.33917086209348" fill="none"/>
<path class="pen1" d="M 91.8990816221147,148.0948021125589 A 22.5,22.5 0 0 0 59.59009742330268,147.59009742330267" fill="none"/>
<line class="pen1" fill="none" x1="12" x2="76" y1="164" y2="164"/>
<line class="pen1" fill="none" x1="76" x2="76" y1="164" y2="228"/>
<line class="pen1" fill="none" x1="76" x2="12" y1="228" y2="228"/>
<line class="pen1" fill="none" x1="12" x2="12" y1="228" y2="164"/>
<line class="pen1" fill="none" x1="76" x2="140" y1="164" y2="164"/>
<line class="pen1" fill="none" x1="140" x2="140" y1="164" y2="228"/>
<line class="pen1" fill="none" x1="140" x2="76" y1="228" y2="228"/>
<line class="pen1" fill="none" x1="76" x2="76" y1="228" y2="164"/>
<path class="pen1" d="M 43.8332155216319,260.1720792237131 A 45.5,45.5 0 0 0 107.67335854398792,259.6733585439879" fill="none"/>
<path class="pen1" d="M 60.09480211255891,243.89908162211472 A 22.5,22.5 0 0 0 91.40990257669732,243.4099025766973" fill="none"/>
</g>
</svg>
