<?xml version="1.0" encoding="UTF-8" standalone="no"?>
<!DOCTYPE svg PUBLIC "-//W3C//DTD SVG 1.0//EN" "http://www.w3.org/TR/2001/REC-SVG-20010904/DTD/svg10.dtd">
<svg xmlns="http://www.w3.org/2000/svg" xmlns:xlink="http://www.w3.org/1999/xlink" fill-rule="evenodd" height="4.541666666666667in" preserveAspectRatio="none" stroke-linecap="round" viewBox="0 0 376 328" width="5.21875in">
<style type="text_image/css">
.brush0 { fill: rgb(255,255,255); }
.pen0 { stroke: rgb(0,0,0); stroke-width: 1; stroke-linejoin: round; }
.font0 { font-size: 11px; font-family: "MS Sans Serif"; }
.pen1 { stroke: rgb(0,0,0); stroke-width: 7; stroke-linejoin: round; }
.brush1 { fill: none; }
.font1 { font-weight: bold; font-size: 16px; font-family: System, sans-serif; }
</style>
<g>
<line class="pen1" fill="none" x1="12" x2="44" y1="260" y2="196"/>
<line class="pen1" fill="none" x1="44" x2="76" y1="196" y2="260"/>
<path class="pen1" d="M 76.00001519847862,163.9999980776628 A 127.5,128.0 0 0 0 140.18409575718243,259.67010040312914" fill="none"/>
<path class="pen1" d="M 140.0,164.0 A 32.0,32.0 0 1 0 76.0,164.0" fill="none"/>
<path class="pen1" d="M 204.0,164.0 A 32.0,32.0 0 1 0 140.0,164.0" fill="none"/>
<path class="pen1" d="M 139.81590424281757,259.6701004031291 A 127.5,128.0 0 0 0 203.99998480152138,163.99999807766278" fill="none"/>
<path class="pen1" d="M 364.0,196.0 A 64.0,64.0 0 1 0 236.0,196.0" fill="none"/>
<line class="pen1" fill="none" x1="236" x2="364" y1="260" y2="260"/>
<line class="pen1" fill="none" x1="236" x2="236" y1="196" y2="260"/>
<line class="pen1" fill="none" x1="364" x2="364" y1="196" y2="260"/>
<ellipse class="pen1 brush1" cx="300" cy="196" rx="1" ry="1"/>
</g>
</svg>
