<?xml version="1.0" encoding="UTF-8" standalone="no"?>
<!DOCTYPE svg PUBLIC "-//W3C//DTD SVG 1.0//EN" "http://www.w3.org/TR/2001/REC-SVG-20010904/DTD/svg10.dtd">
<svg xmlns="http://www.w3.org/2000/svg" xmlns:xlink="http://www.w3.org/1999/xlink" fill-rule="evenodd" height="4.541666666666667in" preserveAspectRatio="none" stroke-linecap="round" viewBox="0 0 472 328" width="6.552083333333333in">
<style type="text_image/css">
.brush0 { fill: rgb(255,255,255); }
.pen0 { stroke: rgb(0,0,0); stroke-width: 1; stroke-linejoin: round; }
.font0 { font-size: 11px; font-family: "MS Sans Serif"; }
.pen1 { stroke: rgb(0,0,0); stroke-width: 7; stroke-linejoin: round; }
.brush1 { fill: none; }
.font1 { font-weight: bold; font-size: 16px; font-family: System, sans-serif; }
</style>
<g>
<path class="pen1" d="M 77.34441281461922,194.78162588675133 A 45.0,45.0 0 0 0 10.655587185380774,194.78162588675133" fill="none"/>
<path class="pen1" d="M 75.8332155216319,196.1720792237131 A 45.5,45.5 0 0 0 139.67335854398792,195.67335854398792" fill="none"/>
<path class="pen1" d="M 204.0,132.0 A 80.0,80.0 0 0 0 204.0,260.0" fill="none"/>
<path class="pen1" d="M 332.0,260.0 A 80.0,80.0 0 0 0 332.0,132.0" fill="none"/>
<line class="pen1" fill="none" x1="268" x2="300" y1="164" y2="228"/>
<line class="pen1" fill="none" x1="300" x2="236" y1="228" y2="228"/>
<line class="pen1" fill="none" x1="236" x2="268" y1="228" y2="164"/>
<line class="pen1" fill="none" x1="204" x2="332" y1="260" y2="260"/>
<line class="pen1" fill="none" x1="204" x2="332" y1="132" y2="132"/>
<line class="pen1" fill="none" x1="396" x2="396" y1="132" y2="260"/>
<path class="pen1" d="M 396.0,260.0 A 64.0,64.0 0 0 0 396.0,132.0" fill="none"/>
</g>
</svg>
