<?xml version="1.0" encoding="UTF-8" standalone="no"?>
<!DOCTYPE svg PUBLIC "-//W3C//DTD SVG 1.0//EN" "http://www.w3.org/TR/2001/REC-SVG-20010904/DTD/svg10.dtd">
<svg xmlns="http://www.w3.org/2000/svg" xmlns:xlink="http://www.w3.org/1999/xlink" fill-rule="evenodd" height="4.541666666666667in" preserveAspectRatio="none" stroke-linecap="round" viewBox="0 0 376 328" width="5.21875in">
<style type="text/css">
.brush0 { fill: rgb(255,255,255); }
.pen0 { stroke: rgb(0,0,0); stroke-width: 1; stroke-linejoin: round; }
.font0 { font-size: 11px; font-family: "MS Sans Serif"; }
.pen1 { stroke: rgb(0,0,0); stroke-width: 7; stroke-linejoin: round; }
.brush1 { fill: none; }
.brush2 { fill: rgb(0,0,0); }
.font1 { font-weight: bold; font-size: 16px; font-family: System, sans-serif; }
</style>
<g>
<circle class="pen1" cx="76.0" cy="196.0" fill="none" r="64.0"/>
<line class="pen1" fill="none" x1="76" x2="76" y1="132" y2="260"/>
<line class="pen1" fill="none" x1="60" x2="92" y1="68" y2="68"/>
<line class="pen1" fill="none" x1="92" x2="92" y1="68" y2="100"/>
<line class="pen1" fill="none" x1="92" x2="60" y1="100" y2="100"/>
<line class="pen1" fill="none" x1="60" x2="60" y1="100" y2="68"/>
<path class="pen1" d="M 172.00001519847862,163.9999980776628 A 127.5,128.0 0 0 0 236.18409575718243,259.67010040312914" fill="none"/>
<path class="pen1" d="M 236.0,164.0 A 32.0,32.0 0 1 0 172.0,164.0" fill="none"/>
<path class="pen1" d="M 300.0,164.0 A 32.0,32.0 0 1 0 236.0,164.0" fill="none"/>
<path class="pen1" d="M 235.75343867296755,259.5616687519423 A 128.0,128.0 0 0 0 299.99612444498604,163.9995117411006" fill="none"/>
<path class="pen1" d="M 348.0,196.0 A 16.0,16.0 0 1 0 332.0,180.0" fill="none"/>
<line class="pen1" fill="none" x1="348" x2="348" y1="196" y2="212"/>
<ellipse class="pen1 brush2" cx="348" cy="227" rx="1" ry="1"/>
</g>
</svg>
