<?xml version="1.0" encoding="UTF-8" standalone="no"?>
<!DOCTYPE svg PUBLIC "-//W3C//DTD SVG 1.0//EN" "http://www.w3.org/TR/2001/REC-SVG-20010904/DTD/svg10.dtd">
<svg xmlns="http://www.w3.org/2000/svg" xmlns:xlink="http://www.w3.org/1999/xlink" fill-rule="evenodd" height="4.541666666666667in" preserveAspectRatio="none" stroke-linecap="round" viewBox="0 0 504 328" width="6.989583333333333in">
<style type="text_image/css">
.brush0 { fill: rgb(255,255,255); }
.pen0 { stroke: rgb(0,0,0); stroke-width: 1; stroke-linejoin: round; }
.font0 { font-size: 11px; font-family: "MS Sans Serif"; }
.pen1 { stroke: rgb(0,0,0); stroke-width: 7; stroke-linejoin: round; }
.brush1 { fill: none; }
.brush2 { fill: rgb(0,0,0); }
.font1 { font-weight: bold; font-size: 16px; font-family: System, sans-serif; }
</style>
<g>
<line class="pen1" fill="none" x1="12" x2="12" y1="132" y2="260"/>
<line class="pen1" fill="none" x1="12" x2="76" y1="260" y2="260"/>
<line class="pen1" fill="none" x1="44" x2="12" y1="164" y2="196"/>
<path class="pen1" d="M 107.8332155216319,196.1720792237131 A 45.5,45.5 0 0 0 171.67335854398792,195.67335854398792" fill="none"/>
<path class="pen1" d="M 237.2825294592593,194.8555890978917 A 45.5,45.0 0 0 0 170.19599593641186,194.33917086209348" fill="none"/>
<path class="pen1" d="M 301.2825294592593,194.8555890978917 A 45.5,45.0 0 0 0 234.19599593641186,194.33917086209348" fill="none"/>
<path class="pen1" d="M 235.8332155216319,196.1720792237131 A 45.5,45.5 0 0 0 299.6733585439879,195.67335854398792" fill="none"/>
<line class="pen1" fill="none" x1="332" x2="332" y1="164" y2="212"/>
<ellipse class="pen1 brush2" cx="332" cy="227" rx="1" ry="1"/>
<line class="pen1" fill="none" x1="364" x2="492" y1="132" y2="132"/>
<line class="pen1" fill="none" x1="492" x2="492" y1="132" y2="260"/>
<line class="pen1" fill="none" x1="492" x2="364" y1="260" y2="260"/>
<line class="pen1" fill="none" x1="364" x2="364" y1="260" y2="132"/>
<ellipse class="pen1 brush1" cx="428" cy="196" rx="1" ry="1"/>
<circle class="pen1" cx="428.0" cy="196.0" fill="none" r="32.0"/>
</g>
</svg>
