<?xml version="1.0" encoding="UTF-8" standalone="no"?>
<!DOCTYPE svg PUBLIC "-//W3C//DTD SVG 1.0//EN" "http://www.w3.org/TR/2001/REC-SVG-20010904/DTD/svg10.dtd">
<svg xmlns="http://www.w3.org/2000/svg" xmlns:xlink="http://www.w3.org/1999/xlink" fill-rule="evenodd" height="4.541666666666667in" preserveAspectRatio="none" stroke-linecap="round" viewBox="0 0 440 328" width="6.104166666666667in">
<style type="text/css">
.brush0 { fill: rgb(255,255,255); }
.pen0 { stroke: rgb(0,0,0); stroke-width: 1; stroke-linejoin: round; }
.font0 { font-size: 11px; font-family: "MS Sans Serif"; }
.pen1 { stroke: rgb(0,0,0); stroke-width: 7; stroke-linejoin: round; }
.brush1 { fill: none; }
.font1 { font-weight: bold; font-size: 16px; font-family: System, sans-serif; }
</style>
<g>
<circle class="pen1" cx="76.0" cy="196.0" fill="none" r="64.0"/>
<path class="pen1" d="M 109.28252945925931,194.8555890978917 A 45.5,45.0 0 0 0 42.195995936411876,194.33917086209348" fill="none"/>
<path class="pen1" d="M 43.8332155216319,196.1720792237131 A 45.5,45.5 0 0 0 107.67335854398792,195.67335854398792" fill="none"/>
<path class="pen1" d="M 411.6733585439879,195.67335854398792 A 45.5,45.5 0 0 0 411.6733585439879,131.32664145601208" fill="none"/>
<path class="pen1" d="M 411.3266414560121,195.32664145601208 A 45.5,45.5 0 0 0 411.8332155216319,260.1720792237131" fill="none"/>
<path class="pen1" d="M 300.0,196.0 A 64.0,64.0 0 1 0 172.0,196.0" fill="none"/>
<path class="pen1" d="M 236.0,196.0 A 64.0,64.0 0 0 0 364.0,196.0" fill="none"/>
<line class="pen1" fill="none" x1="268" x2="300" y1="164" y2="196"/>
<line class="pen1" fill="none" x1="300" x2="332" y1="196" y2="164"/>
<line class="pen1" fill="none" x1="204" x2="236" y1="228" y2="196"/>
<line class="pen1" fill="none" x1="236" x2="268" y1="196" y2="228"/>
</g>
</svg>
