<?xml version="1.0" encoding="UTF-8" standalone="no"?>
<!DOCTYPE svg PUBLIC "-//W3C//DTD SVG 1.0//EN" "http://www.w3.org/TR/2001/REC-SVG-20010904/DTD/svg10.dtd">
<svg xmlns="http://www.w3.org/2000/svg" xmlns:xlink="http://www.w3.org/1999/xlink" fill-rule="evenodd" height="4.541666666666667in" preserveAspectRatio="none" stroke-linecap="round" viewBox="0 0 472 328" width="6.552083333333333in">
<style type="text_image/css">
.brush0 { fill: rgb(255,255,255); }
.pen0 { stroke: rgb(0,0,0); stroke-width: 1; stroke-linejoin: round; }
.font0 { font-size: 11px; font-family: "MS Sans Serif"; }
.pen1 { stroke: rgb(0,0,0); stroke-width: 7; stroke-linejoin: round; }
.brush1 { fill: none; }
.font1 { font-weight: bold; font-size: 16px; font-family: System, sans-serif; }
</style>
<g>
<line class="pen1" fill="none" x1="44" x2="44" y1="132" y2="260"/>
<line class="pen1" fill="none" x1="12" x2="76" y1="260" y2="260"/>
<line class="pen1" fill="none" x1="124" x2="124" y1="132" y2="260"/>
<path class="pen1" d="M 123.32664145601208,131.32664145601208 A 45.5,45.5 0 0 0 123.8332155216319,196.1720792237131" fill="none"/>
<path class="pen1" d="M 123.67335854398792,259.6733585439879 A 45.5,45.5 0 0 0 123.67335854398792,195.32664145601208" fill="none"/>
<path class="pen1" d="M 236.0,164.0 A 32.0,32.0 0 1 0 172.0,164.0" fill="none"/>
<path class="pen1" d="M 171.81590424281757,259.6701004031291 A 127.5,128.0 0 0 0 235.99998480152138,163.99999807766278" fill="none"/>
<line class="pen1" fill="none" x1="300" x2="236" y1="132" y2="260"/>
<line class="pen1" fill="none" x1="236" x2="300" y1="260" y2="260"/>
<circle class="pen1" cx="396.0" cy="196.0" fill="none" r="64.0"/>
<line class="pen1" fill="none" x1="396" x2="396" y1="164" y2="228"/>
<line class="pen1" fill="none" x1="364" x2="428" y1="228" y2="228"/>
<line class="pen1" fill="none" x1="380" x2="380" y1="260" y2="292"/>
<line class="pen1" fill="none" x1="412" x2="412" y1="260" y2="292"/>
<line class="pen1" fill="none" x1="460" x2="428" y1="260" y2="292"/>
<line class="pen1" fill="none" x1="428" x2="460" y1="292" y2="324"/>
</g>
</svg>
