<?xml version="1.0" encoding="UTF-8" standalone="no"?>
<!DOCTYPE svg PUBLIC "-//W3C//DTD SVG 1.0//EN" "http://www.w3.org/TR/2001/REC-SVG-20010904/DTD/svg10.dtd">
<svg xmlns="http://www.w3.org/2000/svg" xmlns:xlink="http://www.w3.org/1999/xlink" fill-rule="evenodd" height="4.541666666666667in" preserveAspectRatio="none" stroke-linecap="round" viewBox="0 0 600 328" width="8.322916666666666in">
<style type="text_image/css">
.brush0 { fill: rgb(255,255,255); }
.pen0 { stroke: rgb(0,0,0); stroke-width: 1; stroke-linejoin: round; }
.font0 { font-size: 11px; font-family: "MS Sans Serif"; }
.pen1 { stroke: rgb(0,0,0); stroke-width: 7; stroke-linejoin: round; }
.brush1 { fill: none; }
.brush2 { fill: rgb(0,0,0); }
.font1 { font-weight: bold; font-size: 16px; font-family: System, sans-serif; }
</style>
<g>
<line class="pen1" fill="none" x1="44" x2="44" y1="132" y2="260"/>
<line class="pen1" fill="none" x1="12" x2="76" y1="260" y2="260"/>
<line class="pen1" fill="none" x1="108" x2="236" y1="196" y2="196"/>
<path class="pen1" d="M 108.0,196.0 A 64.0,64.0 0 0 0 236.0,196.0" fill="none"/>
<line class="pen1" fill="none" x1="172" x2="172" y1="132" y2="196"/>
<path class="pen1" d="M 268.0,196.0 A 64.0,64.0 0 0 0 396.0,196.0" fill="none"/>
<line class="pen1" fill="none" x1="332" x2="332" y1="132" y2="260"/>
<line class="pen1" fill="none" x1="332" x2="300" y1="260" y2="228"/>
<line class="pen1" fill="none" x1="332" x2="364" y1="260" y2="228"/>
<line class="pen1" fill="none" x1="428" x2="492" y1="196" y2="196"/>
<line class="pen1" fill="none" x1="524" x2="524" y1="164" y2="212"/>
<ellipse class="pen1 brush2" cx="524" cy="227" rx="1" ry="1"/>
<line class="pen1" fill="none" x1="556" x2="556" y1="164" y2="212"/>
<ellipse class="pen1 brush2" cx="556" cy="227" rx="1" ry="1"/>
</g>
</svg>
