<?xml version="1.0" encoding="UTF-8" standalone="no"?>
<!DOCTYPE svg PUBLIC "-//W3C//DTD SVG 1.0//EN" "http://www.w3.org/TR/2001/REC-SVG-20010904/DTD/svg10.dtd">
<svg xmlns="http://www.w3.org/2000/svg" xmlns:xlink="http://www.w3.org/1999/xlink" fill-rule="evenodd" height="4.541666666666667in" preserveAspectRatio="none" stroke-linecap="round" viewBox="0 0 504 328" width="6.989583333333333in">
<style type="text_image/css">
.brush0 { fill: rgb(255,255,255); }
.pen0 { stroke: rgb(0,0,0); stroke-width: 1; stroke-linejoin: round; }
.font0 { font-size: 11px; font-family: "MS Sans Serif"; }
.pen1 { stroke: rgb(0,0,0); stroke-width: 7; stroke-linejoin: round; }
.brush1 { fill: none; }
.font1 { font-weight: bold; font-size: 16px; font-family: System, sans-serif; }
</style>
<g>
<line class="pen1" fill="none" x1="12" x2="44" y1="260" y2="196"/>
<line class="pen1" fill="none" x1="44" x2="76" y1="196" y2="260"/>
<line class="pen1" fill="none" x1="76" x2="108" y1="260" y2="196"/>
<line class="pen1" fill="none" x1="108" x2="140" y1="196" y2="260"/>
<line class="pen1" fill="none" x1="12" x2="140" y1="196" y2="196"/>
<circle class="pen1" cx="252.0" cy="196.0" fill="none" r="64.0"/>
<circle class="pen1" cx="188.0" cy="148.0" fill="none" r="16.0"/>
<circle class="pen1" cx="316.0" cy="148.0" fill="none" r="16.0"/>
<ellipse class="pen1 brush1" cx="220" cy="196" rx="1" ry="1"/>
<ellipse class="pen1 brush1" cx="284" cy="196" rx="1" ry="1"/>
<ellipse class="pen1 brush1" cx="252" cy="228" rx="1" ry="1"/>
<path class="pen1" d="M 429.2825294592593,194.8555890978917 A 45.5,45.0 0 0 0 362.19599593641186,194.33917086209348" fill="none"/>
<path class="pen1" d="M 427.8332155216319,196.1720792237131 A 45.5,45.5 0 0 0 491.6733585439879,195.67335854398792" fill="none"/>
<line class="pen1" fill="none" x1="396" x2="460" y1="164" y2="164"/>
<line class="pen1" fill="none" x1="460" x2="460" y1="164" y2="228"/>
<line class="pen1" fill="none" x1="460" x2="396" y1="228" y2="228"/>
<line class="pen1" fill="none" x1="396" x2="396" y1="228" y2="164"/>
</g>
</svg>
