<?xml version="1.0" encoding="UTF-8" standalone="no"?>
<!DOCTYPE svg PUBLIC "-//W3C//DTD SVG 1.0//EN" "http://www.w3.org/TR/2001/REC-SVG-20010904/DTD/svg10.dtd">
<svg xmlns="http://www.w3.org/2000/svg" xmlns:xlink="http://www.w3.org/1999/xlink" fill-rule="evenodd" height="4.541666666666667in" preserveAspectRatio="none" stroke-linecap="round" viewBox="0 0 504 328" width="6.989583333333333in">
<style type="text/css">
.brush0 { fill: rgb(255,255,255); }
.pen0 { stroke: rgb(0,0,0); stroke-width: 1; stroke-linejoin: round; }
.font0 { font-size: 11px; font-family: "MS Sans Serif"; }
.pen1 { stroke: rgb(0,0,0); stroke-width: 7; stroke-linejoin: round; }
.brush1 { fill: none; }
.font1 { font-weight: bold; font-size: 16px; font-family: System, sans-serif; }
</style>
<g>
<path class="pen1" d="M 12.251141751250248,195.74493415888648 A 45.0,45.5 0 0 0 75.74885824874976,195.74493415888648" fill="none"/>
<path class="pen1" d="M 141.2825294592593,194.8555890978917 A 45.5,45.0 0 0 0 74.19599593641188,194.33917086209348" fill="none"/>
<path class="pen1" d="M 205.2825294592593,194.8555890978917 A 45.5,45.0 0 0 0 138.19599593641186,194.33917086209348" fill="none"/>
<path class="pen1" d="M 139.8332155216319,196.1720792237131 A 45.5,45.5 0 0 0 203.67335854398792,195.67335854398792" fill="none"/>
<circle class="pen1" cx="172.0" cy="196.0" fill="none" r="64.0"/>
<line class="pen1" fill="none" x1="268" x2="268" y1="132" y2="260"/>
<line class="pen1" fill="none" x1="268" x2="332" y1="260" y2="196"/>
<line class="pen1" fill="none" x1="332" x2="268" y1="196" y2="132"/>
<circle class="pen1" cx="396.0" cy="228.0" fill="none" r="32.0"/>
<line class="pen1" fill="none" x1="428" x2="492" y1="228" y2="228"/>
<line class="pen1" fill="none" x1="428" x2="428" y1="196" y2="260"/>
<line class="pen1" fill="none" x1="492" x2="492" y1="196" y2="260"/>
</g>
</svg>
