<?xml version="1.0" encoding="UTF-8" standalone="no"?>
<!DOCTYPE svg PUBLIC "-//W3C//DTD SVG 1.0//EN" "http://www.w3.org/TR/2001/REC-SVG-20010904/DTD/svg10.dtd">
<svg xmlns="http://www.w3.org/2000/svg" xmlns:xlink="http://www.w3.org/1999/xlink" fill-rule="evenodd" height="4.541666666666667in" preserveAspectRatio="none" stroke-linecap="round" viewBox="0 0 312 328" width="4.333333333333333in">
<style type="text/css">
.brush0 { fill: rgb(255,255,255); }
.pen0 { stroke: rgb(0,0,0); stroke-width: 1; stroke-linejoin: round; }
.font0 { font-size: 11px; font-family: "MS Sans Serif"; }
.pen1 { stroke: rgb(0,0,0); stroke-width: 7; stroke-linejoin: round; }
.brush1 { fill: none; }
.font1 { font-weight: bold; font-size: 16px; font-family: System, sans-serif; }
</style>
<g>
<line class="pen1" fill="none" x1="12" x2="140" y1="196" y2="196"/>
<circle class="pen1" cx="44.0" cy="228.0" fill="none" r="32.0"/>
<line class="pen1" fill="none" x1="66" x2="21" y1="205" y2="250"/>
<line class="pen1" fill="none" x1="21" x2="66" y1="205" y2="250"/>
<circle class="pen1" cx="108.0" cy="228.0" fill="none" r="32.0"/>
<line class="pen1" fill="none" x1="130" x2="85" y1="205" y2="250"/>
<line class="pen1" fill="none" x1="85" x2="130" y1="205" y2="250"/>
<path class="pen1" d="M 237.2825294592593,194.8555890978917 A 45.5,45.0 0 0 0 170.19599593641186,194.33917086209348" fill="none"/>
<path class="pen1" d="M 235.8332155216319,196.1720792237131 A 45.5,45.5 0 0 0 299.6733585439879,195.67335854398792" fill="none"/>
<line class="pen1" fill="none" x1="236" x2="236" y1="132" y2="260"/>
<line class="pen1" fill="none" x1="220" x2="252" y1="244" y2="276"/>
<line class="pen1" fill="none" x1="252" x2="220" y1="244" y2="276"/>
<line class="pen1" fill="none" x1="236" x2="236" y1="260" y2="292"/>
</g>
</svg>
