<?xml version="1.0" encoding="UTF-8" standalone="no"?>
<!DOCTYPE svg PUBLIC "-//W3C//DTD SVG 1.0//EN" "http://www.w3.org/TR/2001/REC-SVG-20010904/DTD/svg10.dtd">
<svg xmlns="http://www.w3.org/2000/svg" xmlns:xlink="http://www.w3.org/1999/xlink" fill-rule="evenodd" height="4.541666666666667in" preserveAspectRatio="none" stroke-linecap="round" viewBox="0 0 472 328" width="6.552083333333333in">
<style type="text/css">
.brush0 { fill: rgb(255,255,255); }
.pen0 { stroke: rgb(0,0,0); stroke-width: 1; stroke-linejoin: round; }
.font0 { font-size: 11px; font-family: "MS Sans Serif"; }
.pen1 { stroke: rgb(0,0,0); stroke-width: 7; stroke-linejoin: round; }
.brush1 { fill: none; }
.font1 { font-weight: bold; font-size: 16px; font-family: System, sans-serif; }
</style>
<g>
<path class="pen1" d="M 397.2825294592593,194.8555890978917 A 45.5,45.0 0 0 0 330.19599593641186,194.33917086209348" fill="none"/>
<path class="pen1" d="M 395.8332155216319,196.1720792237131 A 45.5,45.5 0 0 0 459.6733585439879,195.67335854398792" fill="none"/>
<line class="pen1" fill="none" x1="396" x2="396" y1="132" y2="260"/>
<line class="pen1" fill="none" x1="380" x2="412" y1="244" y2="276"/>
<line class="pen1" fill="none" x1="412" x2="380" y1="244" y2="276"/>
<line class="pen1" fill="none" x1="108" x2="172" y1="260" y2="132"/>
<line class="pen1" fill="none" x1="172" x2="236" y1="132" y2="260"/>
<line class="pen1" fill="none" x1="108" x2="172" y1="260" y2="260"/>
<line class="pen1" fill="none" x1="236" x2="300" y1="260" y2="260"/>
<line class="pen1" fill="none" x1="44" x2="44" y1="132" y2="260"/>
<path class="pen1" d="M 44.00000000000001,260.0 A 80.0,80.0 0 0 0 44.00000000000001,132.0" fill="none"/>
<path class="pen1" d="M 44.000000000000014,132.0 A 80.0,80.0 0 0 0 44.000000000000014,260.0" fill="none"/>
<line class="pen1" fill="none" x1="12" x2="76" y1="196" y2="196"/>
<line class="pen1" fill="none" x1="44" x2="44" y1="260" y2="324"/>
<line class="pen1" fill="none" x1="396" x2="396" y1="260" y2="292"/>
</g>
</svg>
