<?xml version="1.0" encoding="UTF-8" standalone="no"?>
<!DOCTYPE svg PUBLIC "-//W3C//DTD SVG 1.0//EN" "http://www.w3.org/TR/2001/REC-SVG-20010904/DTD/svg10.dtd">
<svg xmlns="http://www.w3.org/2000/svg" xmlns:xlink="http://www.w3.org/1999/xlink" fill-rule="evenodd" height="4.541666666666667in" preserveAspectRatio="none" stroke-linecap="round" viewBox="0 0 632 328" width="8.770833333333334in">
<style type="text_image/css">
.brush0 { fill: rgb(255,255,255); }
.pen0 { stroke: rgb(0,0,0); stroke-width: 1; stroke-linejoin: round; }
.font0 { font-size: 11px; font-family: "MS Sans Serif"; }
.pen1 { stroke: rgb(0,0,0); stroke-width: 7; stroke-linejoin: round; }
.brush1 { fill: none; }
.font1 { font-weight: bold; font-size: 16px; font-family: System, sans-serif; }
</style>
<g>
<path class="pen1" d="M 44.000000000000014,132.0 A 80.0,80.0 0 0 0 44.000000000000014,260.0" fill="none"/>
<path class="pen1" d="M 108.0,260.0 A 80.0,80.0 0 0 0 108.0,132.0" fill="none"/>
<line class="pen1" fill="none" x1="44" x2="108" y1="132" y2="132"/>
<line class="pen1" fill="none" x1="44" x2="108" y1="260" y2="260"/>
<ellipse class="pen1 brush1" cx="76" cy="196" rx="1" ry="1"/>
<line class="pen1" fill="none" x1="268" x2="140" y1="132" y2="260"/>
<line class="pen1" fill="none" x1="268" x2="268" y1="132" y2="196"/>
<line class="pen1" fill="none" x1="236" x2="300" y1="196" y2="196"/>
<line class="pen1" fill="none" x1="300" x2="300" y1="196" y2="260"/>
<line class="pen1" fill="none" x1="300" x2="236" y1="260" y2="260"/>
<line class="pen1" fill="none" x1="236" x2="236" y1="260" y2="196"/>
<path class="pen1" d="M 397.2825294592593,194.8555890978917 A 45.5,45.0 0 0 0 330.19599593641186,194.33917086209348" fill="none"/>
<path class="pen1" d="M 395.8332155216319,196.1720792237131 A 45.5,45.5 0 0 0 459.6733585439879,195.67335854398792" fill="none"/>
<circle class="pen1" cx="556.0" cy="196.0" fill="none" r="64.0"/>
<line class="pen1" fill="none" x1="556" x2="556" y1="132" y2="260"/>
</g>
</svg>
