<?xml version="1.0" encoding="UTF-8" standalone="no"?>
<!DOCTYPE svg PUBLIC "-//W3C//DTD SVG 1.0//EN" "http://www.w3.org/TR/2001/REC-SVG-20010904/DTD/svg10.dtd">
<svg xmlns="http://www.w3.org/2000/svg" xmlns:xlink="http://www.w3.org/1999/xlink" fill-rule="evenodd" height="4.541666666666667in" preserveAspectRatio="none" stroke-linecap="round" viewBox="0 0 696 328" width="9.65625in">
<style type="text/css">
.brush0 { fill: rgb(255,255,255); }
.pen0 { stroke: rgb(0,0,0); stroke-width: 1; stroke-linejoin: round; }
.font0 { font-size: 11px; font-family: "MS Sans Serif"; }
.pen1 { stroke: rgb(0,0,0); stroke-width: 7; stroke-linejoin: round; }
.brush1 { fill: none; }
.font1 { font-weight: bold; font-size: 16px; font-family: System, sans-serif; }
</style>
<g>
<circle class="pen1" cx="44.0" cy="228.0" fill="none" r="32.0"/>
<path class="pen1" d="M 91.67335854398792,259.6733585439879 A 45.5,45.5 0 0 0 91.67335854398792,195.32664145601208" fill="none"/>
<circle class="pen1" cx="204.0" cy="196.0" fill="none" r="64.0"/>
<circle class="pen1" cx="620.0" cy="196.0" fill="none" r="64.0"/>
<circle class="pen1" cx="620.0" cy="196.0" fill="none" r="32.0"/>
<path class="pen1" d="M 300.00001519847865,163.9999980776628 A 127.5,128.0 0 0 0 364.18409575718243,259.67010040312914" fill="none"/>
<path class="pen1" d="M 364.0,164.0 A 32.0,32.0 0 1 0 300.0,164.0" fill="none"/>
<path class="pen1" d="M 428.0,164.0 A 32.0,32.0 0 1 0 364.0,164.0" fill="none"/>
<path class="pen1" d="M 363.75343867296755,259.5616687519423 A 128.0,128.0 0 0 0 427.99612444498604,163.9995117411006" fill="none"/>
<line class="pen1" fill="none" x1="140" x2="268" y1="260" y2="260"/>
<line class="pen1" fill="none" x1="492" x2="460" y1="132" y2="164"/>
<line class="pen1" fill="none" x1="492" x2="524" y1="132" y2="164"/>
<line class="pen1" fill="none" x1="492" x2="492" y1="132" y2="260"/>
<ellipse class="pen1 brush1" cx="620" cy="196" rx="1" ry="1"/>
</g>
</svg>
