<?xml version="1.0" encoding="UTF-8" standalone="no"?>
<!DOCTYPE svg PUBLIC "-//W3C//DTD SVG 1.0//EN" "http://www.w3.org/TR/2001/REC-SVG-20010904/DTD/svg10.dtd">
<svg xmlns="http://www.w3.org/2000/svg" xmlns:xlink="http://www.w3.org/1999/xlink" fill-rule="evenodd" height="4.541666666666667in" preserveAspectRatio="none" stroke-linecap="round" viewBox="0 0 760 328" width="10.541666666666666in">
<style type="text/css">
.brush0 { fill: rgb(255,255,255); }
.pen0 { stroke: rgb(0,0,0); stroke-width: 1; stroke-linejoin: round; }
.font0 { font-size: 11px; font-family: "MS Sans Serif"; }
.pen1 { stroke: rgb(0,0,0); stroke-width: 7; stroke-linejoin: round; }
.brush1 { fill: none; }
.font1 { font-weight: bold; font-size: 16px; font-family: System, sans-serif; }
</style>
<g>
<line class="pen1" fill="none" x1="108" x2="108" y1="100" y2="164"/>
<line class="pen1" fill="none" x1="108" x2="108" y1="228" y2="292"/>
<line class="pen1" fill="none" x1="140" x2="204" y1="196" y2="196"/>
<line class="pen1" fill="none" x1="12" x2="76" y1="196" y2="196"/>
<line class="pen1" fill="none" x1="76" x2="108" y1="260" y2="228"/>
<line class="pen1" fill="none" x1="108" x2="140" y1="228" y2="260"/>
<line class="pen1" fill="none" x1="44" x2="76" y1="164" y2="196"/>
<line class="pen1" fill="none" x1="76" x2="44" y1="196" y2="228"/>
<line class="pen1" fill="none" x1="76" x2="108" y1="132" y2="164"/>
<line class="pen1" fill="none" x1="108" x2="140" y1="164" y2="132"/>
<line class="pen1" fill="none" x1="172" x2="140" y1="164" y2="196"/>
<line class="pen1" fill="none" x1="140" x2="172" y1="196" y2="228"/>
<circle class="pen1" cx="300.0" cy="196.0" fill="none" r="64.0"/>
<circle class="pen1" cx="460.0" cy="196.0" fill="none" r="64.0"/>
<line class="pen1" fill="none" x1="236" x2="364" y1="260" y2="260"/>
<path class="pen1" d="M 588.0,212.0 A 16.0,16.0 0 1 0 556.0,212.0" fill="none"/>
<line class="pen1" fill="none" x1="588" x2="556" y1="212" y2="260"/>
<line class="pen1" fill="none" x1="556" x2="588" y1="260" y2="260"/>
<path class="pen1" d="M 683.6733585439879,195.67335854398792 A 45.5,45.5 0 0 0 683.6733585439879,131.32664145601208" fill="none"/>
<path class="pen1" d="M 683.3266414560121,195.32664145601208 A 45.5,45.5 0 0 0 683.8332155216319,260.1720792237131" fill="none"/>
<line class="pen1" fill="none" x1="652" x2="620" y1="164" y2="196"/>
<line class="pen1" fill="none" x1="620" x2="652" y1="196" y2="228"/>
<line class="pen1" fill="none" x1="716" x2="748" y1="164" y2="196"/>
<line class="pen1" fill="none" x1="748" x2="716" y1="196" y2="228"/>
</g>
</svg>
