<?xml version="1.0" encoding="UTF-8" standalone="no"?>
<!DOCTYPE svg PUBLIC "-//W3C//DTD SVG 1.0//EN" "http://www.w3.org/TR/2001/REC-SVG-20010904/DTD/svg10.dtd">
<svg xmlns="http://www.w3.org/2000/svg" xmlns:xlink="http://www.w3.org/1999/xlink" fill-rule="evenodd" height="4.541666666666667in" preserveAspectRatio="none" stroke-linecap="round" viewBox="0 0 504 328" width="6.989583333333333in">
<style type="text_image/css">
.brush0 { fill: rgb(255,255,255); }
.pen0 { stroke: rgb(0,0,0); stroke-width: 1; stroke-linejoin: round; }
.font0 { font-size: 11px; font-family: "MS Sans Serif"; }
.pen1 { stroke: rgb(0,0,0); stroke-width: 7; stroke-linejoin: round; }
.brush1 { fill: none; }
.font1 { font-weight: bold; font-size: 16px; font-family: System, sans-serif; }
</style>
<g>
<line class="pen1" fill="none" x1="12" x2="12" y1="132" y2="260"/>
<path class="pen1" d="M 12.000000000000004,260.0 A 64.0,64.0 0 0 0 12.000000000000004,132.0" fill="none"/>
<circle class="pen1" cx="172.0" cy="196.0" fill="none" r="64.0"/>
<line class="pen1" fill="none" x1="364" x2="332" y1="164" y2="196"/>
<line class="pen1" fill="none" x1="332" x2="364" y1="196" y2="228"/>
<path class="pen1" d="M 411.6733585439879,195.67335854398792 A 45.5,45.5 0 0 0 411.6733585439879,131.32664145601208" fill="none"/>
<path class="pen1" d="M 411.3266414560121,195.32664145601208 A 45.5,45.5 0 0 0 411.8332155216319,260.1720792237131" fill="none"/>
<line class="pen1" fill="none" x1="460" x2="492" y1="164" y2="196"/>
<line class="pen1" fill="none" x1="492" x2="460" y1="196" y2="228"/>
<path class="pen1" d="M 300.0,212.0 A 16.0,16.0 0 1 0 268.0,212.0" fill="none"/>
<line class="pen1" fill="none" x1="300" x2="268" y1="212" y2="260"/>
<line class="pen1" fill="none" x1="268" x2="300" y1="260" y2="260"/>
</g>
</svg>
