<?xml version="1.0" encoding="UTF-8" standalone="no"?>
<!DOCTYPE svg PUBLIC "-//W3C//DTD SVG 1.0//EN" "http://www.w3.org/TR/2001/REC-SVG-20010904/DTD/svg10.dtd">
<svg xmlns="http://www.w3.org/2000/svg" xmlns:xlink="http://www.w3.org/1999/xlink" fill-rule="evenodd" height="4.541666666666667in" preserveAspectRatio="none" stroke-linecap="round" viewBox="0 0 376 328" width="5.21875in">
<style type="text_image/css">
.brush0 { fill: rgb(255,255,255); }
.pen0 { stroke: rgb(0,0,0); stroke-width: 1; stroke-linejoin: round; }
.font0 { font-size: 11px; font-family: "MS Sans Serif"; }
.pen1 { stroke: rgb(0,0,0); stroke-width: 7; stroke-linejoin: round; }
.brush1 { fill: none; }
.brush2 { fill: rgb(0,0,0); }
.font1 { font-weight: bold; font-size: 16px; font-family: System, sans-serif; }
</style>
<g>
<path class="pen1" d="M 12.980709657364216,163.87644602741867 A 127.0,128.0 0 0 0 76.36545528603006,259.3503017137243" fill="none"/>
<path class="pen1" d="M 76.0,164.0 A 32.0,32.0 0 1 0 12.0,164.0" fill="none"/>
<path class="pen1" d="M 140.0,164.0 A 32.0,32.0 0 1 0 76.0,164.0" fill="none"/>
<path class="pen1" d="M 75.81590424281757,259.6701004031291 A 127.5,128.0 0 0 0 139.99998480152138,163.99999807766278" fill="none"/>
<path class="pen1" d="M 236.0,132.0 A 80.0,80.0 0 0 0 236.0,260.0" fill="none"/>
<path class="pen1" d="M 300.0,196.0 A 64.0,64.0 0 1 0 172.0,196.0" fill="none"/>
<path class="pen1" d="M 252.0,196.0 A 16.0,16.0 0 1 0 236.0,180.0" fill="none"/>
<line class="pen1" fill="none" x1="252" x2="252" y1="196" y2="212"/>
<ellipse class="pen1 brush2" cx="252" cy="227" rx="1" ry="1"/>
<line class="pen1" fill="none" x1="60" x2="76" y1="68" y2="100"/>
<line class="pen1" fill="none" x1="76" x2="92" y1="100" y2="68"/>
<line class="pen1" fill="none" x1="332" x2="332" y1="164" y2="212"/>
<ellipse class="pen1 brush2" cx="332" cy="227" rx="1" ry="1"/>
</g>
</svg>
