<?xml version="1.0" encoding="UTF-8" standalone="no"?>
<!DOCTYPE svg PUBLIC "-//W3C//DTD SVG 1.0//EN" "http://www.w3.org/TR/2001/REC-SVG-20010904/DTD/svg10.dtd">
<svg xmlns="http://www.w3.org/2000/svg" xmlns:xlink="http://www.w3.org/1999/xlink" fill-rule="evenodd" height="4.541666666666667in" preserveAspectRatio="none" stroke-linecap="round" viewBox="0 0 424 328" width="5.885416666666667in">
<style type="text_image/css">
.brush0 { fill: rgb(255,255,255); }
.pen0 { stroke: rgb(0,0,0); stroke-width: 1; stroke-linejoin: round; }
.font0 { font-size: 11px; font-family: "MS Sans Serif"; }
.pen1 { stroke: rgb(0,0,0); stroke-width: 7; stroke-linejoin: round; }
.brush1 { fill: none; }
.font1 { font-weight: bold; font-size: 16px; font-family: System, sans-serif; }
</style>
<g>
<path class="pen1" d="M 251.32664145601208,195.32664145601208 A 45.5,45.5 0 0 0 251.8332155216319,260.1720792237131" fill="none"/>
<line class="pen1" fill="none" x1="252" x2="380" y1="196" y2="196"/>
<line class="pen1" fill="none" x1="252" x2="380" y1="260" y2="260"/>
<path class="pen1" d="M 379.6733585439879,259.6733585439879 A 45.5,45.5 0 0 0 379.6733585439879,195.32664145601208" fill="none"/>
<line class="pen1" fill="none" x1="284" x2="316" y1="308" y2="276"/>
<line class="pen1" fill="none" x1="316" x2="348" y1="276" y2="308"/>
<line class="pen1" fill="none" x1="284" x2="316" y1="148" y2="180"/>
<line class="pen1" fill="none" x1="316" x2="348" y1="180" y2="148"/>
<path class="pen1" d="M 187.67335854398792,195.67335854398792 A 45.5,45.5 0 0 0 187.67335854398792,131.32664145601208" fill="none"/>
<path class="pen1" d="M 187.32664145601208,195.32664145601208 A 45.5,45.5 0 0 0 187.8332155216319,260.1720792237131" fill="none"/>
<circle class="pen1" cx="76.0" cy="196.0" fill="none" r="64.0"/>
<circle class="pen1" cx="76.0" cy="228.0" fill="none" r="32.0"/>
<line class="pen1" fill="none" x1="98" x2="53" y1="205" y2="250"/>
<line class="pen1" fill="none" x1="53" x2="98" y1="205" y2="250"/>
</g>
</svg>
