<?xml version="1.0" encoding="UTF-8" standalone="no"?>
<!DOCTYPE svg PUBLIC "-//W3C//DTD SVG 1.0//EN" "http://www.w3.org/TR/2001/REC-SVG-20010904/DTD/svg10.dtd">
<svg xmlns="http://www.w3.org/2000/svg" xmlns:xlink="http://www.w3.org/1999/xlink" fill-rule="evenodd" height="4.541666666666667in" preserveAspectRatio="none" stroke-linecap="round" viewBox="0 0 472 328" width="6.552083333333333in">
<style type="text/css">
.brush0 { fill: rgb(255,255,255); }
.pen0 { stroke: rgb(0,0,0); stroke-width: 1; stroke-linejoin: round; }
.font0 { font-size: 11px; font-family: "MS Sans Serif"; }
.pen1 { stroke: rgb(0,0,0); stroke-width: 7; stroke-linejoin: round; }
.brush1 { fill: none; }
.font1 { font-weight: bold; font-size: 16px; font-family: System, sans-serif; }
</style>
<g>
<circle class="pen1" cx="300.0" cy="196.0" fill="none" r="32.0"/>
<path class="pen1" d="M 364.0,164.0 A 32.0,32.0 0 1 0 300.0,164.0" fill="none"/>
<path class="pen1" d="M 299.75343867296755,259.5616687519423 A 128.0,128.0 0 0 0 363.99612444498604,163.9995117411006" fill="none"/>
<line class="pen1" fill="none" x1="460" x2="396" y1="132" y2="196"/>
<line class="pen1" fill="none" x1="396" x2="460" y1="196" y2="196"/>
<line class="pen1" fill="none" x1="460" x2="396" y1="196" y2="260"/>
<line class="pen1" fill="none" x1="172" x2="172" y1="132" y2="260"/>
<line class="pen1" fill="none" x1="172" x2="236" y1="260" y2="260"/>
<line class="pen1" fill="none" x1="236" x2="236" y1="260" y2="132"/>
<line class="pen1" fill="none" x1="172" x2="236" y1="132" y2="132"/>
<circle class="pen1" cx="76.0" cy="196.0" fill="none" r="64.0"/>
<circle class="pen1" cx="76.0" cy="228.0" fill="none" r="32.0"/>
<line class="pen1" fill="none" x1="98" x2="53" y1="205" y2="250"/>
<line class="pen1" fill="none" x1="53" x2="98" y1="205" y2="250"/>
</g>
</svg>
